<svg width="20" height="13" viewBox="0 0 20 13" fill="none" xmlns="http://www.w3.org/2000/svg">
<path d="M12.4249 5.01161L9.9999 0.761612C9.86657 0.528278 9.89157 0.323944 10.0749 0.148611C10.2582 -0.0260552 10.4666 -0.0467203 10.6999 0.0866129L18.6749 5.16161C18.9916 5.36161 19.1499 5.64495 19.1499 6.01161C19.1499 6.37828 18.9916 6.66161 18.6749 6.86161L10.6999 11.9366C10.4666 12.0699 10.2582 12.0493 10.0749 11.8746C9.89157 11.6993 9.86657 11.4949 9.9999 11.2616L12.4249 7.01161L0.999903 7.01161C0.71657 7.01161 0.479237 6.91595 0.287903 6.72461C0.0959039 6.53261 -9.6774e-05 6.29494 -9.67492e-05 6.01161C-9.67245e-05 5.72828 0.095904 5.49095 0.287903 5.29961C0.479237 5.10761 0.716571 5.01161 0.999903 5.01161L12.4249 5.01161Z" fill="white"/>
</svg>
