<?xml version="1.0" encoding="UTF-8"?>
<svg version="1.1" xmlns="http://www.w3.org/2000/svg" width="100" height="70">
<path d="M0 0 C5.8413481 3.53685001 9.28207792 8.86393551 11.4375 15.25 C14.51044562 28.46182609 14.3598238 44.92689758 7.20703125 56.73828125 C4.1310912 60.72133499 0.56847471 63.49701401 -4.4375 64.5 C-12.14708103 65.27973007 -18.23699099 65.4087363 -24.4375 60.5 C-30.78875781 54.44414953 -33.54248178 46.24994619 -33.96875 37.5625 C-33.97919358 35.54166681 -33.96866637 33.52061984 -33.9375 31.5 C-33.95296875 30.49710938 -33.9684375 29.49421875 -33.984375 28.4609375 C-33.93528532 18.96208479 -31.76209573 9.85365782 -24.98046875 2.87109375 C-18.37104244 -3.00209267 -8.04990847 -3.48984471 0 0 Z M-16.4375 10.5 C-22.96281855 19.86672309 -21.97089614 32.69019087 -20.4375 43.5 C-19.485906 47.47044392 -17.92545655 49.9724794 -15.125 53 C-12.50456709 54.73834519 -12.50456709 54.73834519 -9.375 54.5625 C-5.63519526 53.20980467 -4.4977015 51.88461675 -2.4375 48.5 C-0.4123336 42.80920983 -0.10233201 37.63655084 -0.125 31.625 C-0.10888672 30.77808594 -0.09277344 29.93117188 -0.07617188 29.05859375 C-0.07078489 22.02319058 -0.87791437 15.19084643 -5.875 9.9375 C-9.79163188 7.74036505 -12.82083152 8.04999877 -16.4375 10.5 Z " fill="#FFFFFF" transform="translate(36.4375,3.5)"/>
<path d="M0 0 C0 18.15 0 36.3 0 55 C4.62 55 9.24 55 14 55 C14 57.97 14 60.94 14 64 C0.14 64 -13.72 64 -28 64 C-28 61.03 -28 58.06 -28 55 C-23.05 55 -18.1 55 -13 55 C-13.495 36.685 -13.495 36.685 -14 18 C-18.455 20.97 -18.455 20.97 -23 24 C-26 23 -26 23 -27.16796875 21.15234375 C-27.50441406 20.42144531 -27.84085938 19.69054687 -28.1875 18.9375 C-28.70376953 17.83728516 -28.70376953 17.83728516 -29.23046875 16.71484375 C-29.48441406 16.14894531 -29.73835938 15.58304688 -30 15 C-29.5059668 14.65219482 -29.01193359 14.30438965 -28.50292969 13.94604492 C-26.2515108 12.3604903 -24.00074986 10.77400417 -21.75 9.1875 C-20.97269531 8.64029297 -20.19539063 8.09308594 -19.39453125 7.52929688 C-18.26337891 6.73168945 -18.26337891 6.73168945 -17.109375 5.91796875 C-16.41811523 5.43094482 -15.72685547 4.9439209 -15.01464844 4.44213867 C-12.9694318 3.05931875 -12.9694318 3.05931875 -11.30566406 1.31762695 C-9 0 -9 0 0 0 Z " fill="#FFFFFF" transform="translate(83,3)"/>
</svg>
