<?xml version="1.0" encoding="UTF-8"?>
<svg version="1.1" xmlns="http://www.w3.org/2000/svg" width="100" height="70">
<path d="M0 0 C5.8413481 3.53685001 9.28207792 8.86393551 11.4375 15.25 C14.51044562 28.46182609 14.3598238 44.92689758 7.20703125 56.73828125 C4.1310912 60.72133499 0.56847471 63.49701401 -4.4375 64.5 C-12.14708103 65.27973007 -18.23699099 65.4087363 -24.4375 60.5 C-30.78875781 54.44414953 -33.54248178 46.24994619 -33.96875 37.5625 C-33.97919358 35.54166681 -33.96866637 33.52061984 -33.9375 31.5 C-33.95296875 30.49710938 -33.9684375 29.49421875 -33.984375 28.4609375 C-33.93528532 18.96208479 -31.76209573 9.85365782 -24.98046875 2.87109375 C-18.37104244 -3.00209267 -8.04990847 -3.48984471 0 0 Z M-16.4375 10.5 C-22.96281855 19.86672309 -21.97089614 32.69019087 -20.4375 43.5 C-19.485906 47.47044392 -17.92545655 49.9724794 -15.125 53 C-12.50456709 54.73834519 -12.50456709 54.73834519 -9.375 54.5625 C-5.63519526 53.20980467 -4.4977015 51.88461675 -2.4375 48.5 C-0.4123336 42.80920983 -0.10233201 37.63655084 -0.125 31.625 C-0.10888672 30.77808594 -0.09277344 29.93117188 -0.07617188 29.05859375 C-0.07078489 22.02319058 -0.87791437 15.19084643 -5.875 9.9375 C-9.79163188 7.74036505 -12.82083152 8.04999877 -16.4375 10.5 Z " fill="#FFFFFF" transform="translate(36.4375,3.5)"/>
<path d="M0 0 C4.29933152 3.72608732 6.74465228 6.53559762 7.3359375 12.2421875 C7.4668971 24.42143047 7.4668971 24.42143047 3 29 C-2.20578886 34.19327494 -8.04170448 38.12189321 -14.265625 42.0078125 C-18.09448947 44.79741376 -20.49694679 47.49084036 -22 52 C-12.1 52 -2.2 52 8 52 C8 54.97 8 57.94 8 61 C-6.52 61 -21.04 61 -36 61 C-36 50.77470356 -36 50.77470356 -34.3125 46.3125 C-33.99925781 45.44238281 -33.68601563 44.57226562 -33.36328125 43.67578125 C-29.28983902 35.6806296 -22.81499191 32.00437892 -15.41796875 27.41210938 C-9.57811957 23.7593251 -9.57811957 23.7593251 -6 18 C-5.66621926 15.15243307 -6.0539245 12.70390713 -7 10 C-9.01742082 7.73948997 -9.01742082 7.73948997 -12 7 C-15.78928158 7.06533244 -18.05673002 7.11961469 -20.875 9.75 C-22.29783429 12.348996 -22.29783429 12.348996 -23 17 C-27.29 17 -31.58 17 -36 17 C-34.99545587 9.66682785 -33.77850292 4.84909336 -28 0 C-20.10048093 -5.10177273 -7.95915775 -4.91096968 0 0 Z " fill="#FFFFFF" transform="translate(89,6)"/>
</svg>
