<?xml version="1.0" encoding="UTF-8"?>
<svg version="1.1" xmlns="http://www.w3.org/2000/svg" width="100" height="70">
<path d="M0 0 C5.8413481 3.53685001 9.28207792 8.86393551 11.4375 15.25 C14.51044562 28.46182609 14.3598238 44.92689758 7.20703125 56.73828125 C4.1310912 60.72133499 0.56847471 63.49701401 -4.4375 64.5 C-12.14708103 65.27973007 -18.23699099 65.4087363 -24.4375 60.5 C-30.78875781 54.44414953 -33.54248178 46.24994619 -33.96875 37.5625 C-33.97919358 35.54166681 -33.96866637 33.52061984 -33.9375 31.5 C-33.95296875 30.49710938 -33.9684375 29.49421875 -33.984375 28.4609375 C-33.93528532 18.96208479 -31.76209573 9.85365782 -24.98046875 2.87109375 C-18.37104244 -3.00209267 -8.04990847 -3.48984471 0 0 Z M-16.4375 10.5 C-22.96281855 19.86672309 -21.97089614 32.69019087 -20.4375 43.5 C-19.485906 47.47044392 -17.92545655 49.9724794 -15.125 53 C-12.50456709 54.73834519 -12.50456709 54.73834519 -9.375 54.5625 C-5.63519526 53.20980467 -4.4977015 51.88461675 -2.4375 48.5 C-0.4123336 42.80920983 -0.10233201 37.63655084 -0.125 31.625 C-0.10888672 30.77808594 -0.09277344 29.93117188 -0.07617188 29.05859375 C-0.07078489 22.02319058 -0.87791437 15.19084643 -5.875 9.9375 C-9.79163188 7.74036505 -12.82083152 8.04999877 -16.4375 10.5 Z " fill="#FFFFFF" transform="translate(36.4375,3.5)"/>
<path d="M0 0 C3.84801014 2.31539797 6.36841628 5.29933256 8.375 9.3125 C9.09987025 16.47802065 8.71497403 21.48453488 4.375 27.3125 C3.385 27.9725 2.395 28.6325 1.375 29.3125 C1.85710937 29.69921875 2.33921875 30.0859375 2.8359375 30.484375 C3.46757813 31.00515625 4.09921875 31.5259375 4.75 32.0625 C5.37648437 32.57296875 6.00296875 33.0834375 6.6484375 33.609375 C10.21053212 37.12311539 10.68744307 40.27052525 10.75 45.1875 C10.65492395 50.39766768 10.01560053 53.37671564 6.375 57.3125 C-0.25308037 63.59173404 -7.22852581 63.70452457 -15.984375 63.55859375 C-21.93974251 63.15603135 -26.38909505 62.02092276 -30.5 57.4375 C-34.0859157 52.16409456 -34.625 49.88924489 -34.625 43.3125 C-30.665 43.3125 -26.705 43.3125 -22.625 43.3125 C-22.233125 44.405625 -21.84125 45.49875 -21.4375 46.625 C-20.3057803 49.20804543 -19.5732216 50.35984025 -17.4375 52.3125 C-13.34785612 53.7665956 -10.86918711 53.27086483 -6.625 52.3125 C-4.56097315 51.33201062 -4.56097315 51.33201062 -3.625 49.3125 C-2.62194245 45.44356373 -2.2429985 43.21724039 -3.8125 39.5 C-7.63671146 34.88457237 -11.93119836 34.88188016 -17.625 34.3125 C-17.625 31.3425 -17.625 28.3725 -17.625 25.3125 C-16.59439453 25.14814453 -16.59439453 25.14814453 -15.54296875 24.98046875 C-14.64191406 24.82191406 -13.74085937 24.66335937 -12.8125 24.5 C-11.91917969 24.34917969 -11.02585937 24.19835937 -10.10546875 24.04296875 C-7.37502116 23.23888419 -6.27269287 22.61497636 -4.625 20.3125 C-3.91254381 16.84800716 -3.96036311 13.45715242 -5.75 10.375 C-8.45176164 8.84400174 -10.51935505 8.4367258 -13.625 8.3125 C-16.46428533 9.23273288 -16.46428533 9.23273288 -18.625 11.3125 C-19.98480881 14.38811246 -19.98480881 14.38811246 -20.625 17.3125 C-24.585 17.3125 -28.545 17.3125 -32.625 17.3125 C-32.22218229 11.47164326 -31.512221 7.93514119 -27.625 3.3125 C-19.86383113 -2.54797445 -9.09049 -4.2617042 0 0 Z " fill="#FFFFFF" transform="translate(86.625,4.6875)"/>
</svg>
