<?xml version="1.0" encoding="UTF-8"?>
<svg version="1.1" xmlns="http://www.w3.org/2000/svg" width="100" height="70">
<path d="M0 0 C5.8413481 3.53685001 9.28207792 8.86393551 11.4375 15.25 C14.51044562 28.46182609 14.3598238 44.92689758 7.20703125 56.73828125 C4.1310912 60.72133499 0.56847471 63.49701401 -4.4375 64.5 C-12.14708103 65.27973007 -18.23699099 65.4087363 -24.4375 60.5 C-30.78875781 54.44414953 -33.54248178 46.24994619 -33.96875 37.5625 C-33.97919358 35.54166681 -33.96866637 33.52061984 -33.9375 31.5 C-33.95296875 30.49710938 -33.9684375 29.49421875 -33.984375 28.4609375 C-33.93528532 18.96208479 -31.76209573 9.85365782 -24.98046875 2.87109375 C-18.37104244 -3.00209267 -8.04990847 -3.48984471 0 0 Z M-16.4375 10.5 C-22.96281855 19.86672309 -21.97089614 32.69019087 -20.4375 43.5 C-19.485906 47.47044392 -17.92545655 49.9724794 -15.125 53 C-12.50456709 54.73834519 -12.50456709 54.73834519 -9.375 54.5625 C-5.63519526 53.20980467 -4.4977015 51.88461675 -2.4375 48.5 C-0.4123336 42.80920983 -0.10233201 37.63655084 -0.125 31.625 C-0.10888672 30.77808594 -0.09277344 29.93117188 -0.07617188 29.05859375 C-0.07078489 22.02319058 -0.87791437 15.19084643 -5.875 9.9375 C-9.79163188 7.74036505 -12.82083152 8.04999877 -16.4375 10.5 Z " fill="#FFFFFF" transform="translate(35.4375,3.5)"/>
<path d="M0 0 C0 13.2 0 26.4 0 40 C2.64 40 5.28 40 8 40 C8 42.97 8 45.94 8 49 C5.36 49 2.72 49 0 49 C0 53.62 0 58.24 0 63 C-4.29 63 -8.58 63 -13 63 C-13 58.38 -13 53.76 -13 49 C-21.91 49 -30.82 49 -40 49 C-40 40.00216732 -40 40.00216732 -38.0859375 37.421875 C-37.44893921 36.53109253 -37.44893921 36.53109253 -36.79907227 35.62231445 C-36.32912842 35.00445068 -35.85918457 34.38658691 -35.375 33.75 C-34.37075046 32.36352984 -33.36686247 30.97679775 -32.36328125 29.58984375 C-31.82268066 28.85620605 -31.28208008 28.12256836 -30.72509766 27.36669922 C-27.59326356 23.0700675 -24.59205935 18.68151916 -21.5625 14.3125 C-19.86538327 11.87217117 -18.16541407 9.43754554 -16.42236328 7.02978516 C-14.86384115 4.87866651 -14.86384115 4.87866651 -13.27734375 1.91796875 C-11 0 -11 0 0 0 Z M-14 20 C-16.30977955 22.86424745 -18.41283692 25.88948268 -20.5625 28.875 C-21.17802734 29.71675781 -21.79355469 30.55851562 -22.42773438 31.42578125 C-23.30075195 32.63427734 -23.30075195 32.63427734 -24.19140625 33.8671875 C-24.72967041 34.61081543 -25.26793457 35.35444336 -25.82250977 36.12060547 C-27.17697625 37.91283994 -27.17697625 37.91283994 -27 40 C-22.38 40 -17.76 40 -13 40 C-13 33.4 -13 26.8 -13 20 C-13.33 20 -13.66 20 -14 20 Z " fill="#FFFFFF" transform="translate(90,4)"/>
</svg>
