<?xml version="1.0" encoding="UTF-8"?>
<svg version="1.1" xmlns="http://www.w3.org/2000/svg" width="100" height="70">
<path d="M0 0 C5.8413481 3.53685001 9.28207792 8.86393551 11.4375 15.25 C14.51044562 28.46182609 14.3598238 44.92689758 7.20703125 56.73828125 C4.1310912 60.72133499 0.56847471 63.49701401 -4.4375 64.5 C-12.14708103 65.27973007 -18.23699099 65.4087363 -24.4375 60.5 C-30.78875781 54.44414953 -33.54248178 46.24994619 -33.96875 37.5625 C-33.97919358 35.54166681 -33.96866637 33.52061984 -33.9375 31.5 C-33.95296875 30.49710938 -33.9684375 29.49421875 -33.984375 28.4609375 C-33.93528532 18.96208479 -31.76209573 9.85365782 -24.98046875 2.87109375 C-18.37104244 -3.00209267 -8.04990847 -3.48984471 0 0 Z M-16.4375 10.5 C-22.96281855 19.86672309 -21.97089614 32.69019087 -20.4375 43.5 C-19.485906 47.47044392 -17.92545655 49.9724794 -15.125 53 C-12.50456709 54.73834519 -12.50456709 54.73834519 -9.375 54.5625 C-5.63519526 53.20980467 -4.4977015 51.88461675 -2.4375 48.5 C-0.4123336 42.80920983 -0.10233201 37.63655084 -0.125 31.625 C-0.10888672 30.77808594 -0.09277344 29.93117188 -0.07617188 29.05859375 C-0.07078489 22.02319058 -0.87791437 15.19084643 -5.875 9.9375 C-9.79163188 7.74036505 -12.82083152 8.04999877 -16.4375 10.5 Z " fill="#FFFFFF" transform="translate(36.4375,3.5)"/>
<path d="M0 0 C12.54 0 25.08 0 38 0 C38 3.3 38 6.6 38 10 C29.09 10 20.18 10 11 10 C11 15.28 11 20.56 11 26 C12.32 25.34 13.64 24.68 15 24 C22.35580865 23.09628637 28.93552016 23.48826137 35 28 C39.56529505 32.68543439 41.28986199 37.31646949 41.375 43.8125 C41.24943982 50.20037414 39.97362582 54.81455426 35.57421875 59.52734375 C29.20397583 65.20624248 22.88310681 65.53128173 14.67578125 65.3125 C8.17108821 64.7594974 4.76348387 62.68681066 0.125 58.25 C-2.38711305 54.40794475 -3.15021556 51.48068159 -4 47 C0.29 47 4.58 47 9 47 C9.4125 47.94875 9.825 48.8975 10.25 49.875 C11.72315321 52.95042763 11.72315321 52.95042763 13.75 54.4375 C18.04421532 55.51105383 21.62019861 54.7783495 25.4375 52.625 C28.00181329 48.31695367 27.725726 43.8727317 27 39 C24.98122186 35.73889685 23.68112308 35.2173797 20.0625 34.0625 C16.38950179 33.98754085 14.90498934 34.821258 12 37 C11.34 37.66 10.68 38.32 10 39 C7.1796875 38.9765625 7.1796875 38.9765625 3.875 38.625 C2.77929688 38.51414063 1.68359375 38.40328125 0.5546875 38.2890625 C-0.28835937 38.19367187 -1.13140625 38.09828125 -2 38 C-1.859247 33.72898372 -1.71145337 29.45823753 -1.5625 25.1875 C-1.52318359 23.99189453 -1.48386719 22.79628906 -1.44335938 21.56445312 C-1.38051758 19.79038086 -1.38051758 19.79038086 -1.31640625 17.98046875 C-1.27974854 16.90692139 -1.24309082 15.83337402 -1.20532227 14.72729492 C-0.93440559 9.80923913 -0.4459349 4.90528395 0 0 Z " fill="#FFFFFF" transform="translate(56,3)"/>
</svg>
