<?xml version="1.0" encoding="UTF-8"?>
<svg version="1.1" xmlns="http://www.w3.org/2000/svg" width="100" height="70">
<path d="M0 0 C1.20269531 -0.02578125 2.40539062 -0.0515625 3.64453125 -0.078125 C8.71497595 0.39146415 11.95944166 2.30104583 15.9375 5.375 C18.87462746 9.1279962 19.50972759 12.60675319 20.1875 17.25 C16.1331181 17.59423997 12.22863638 17.79712436 8.1875 17.25 C5.8125 14.3125 5.8125 14.3125 4.1875 11.25 C0.68429489 9.98288326 -1.0144095 9.95303609 -4.5 11.25 C-9.33453053 15.43121559 -10.18841855 21.13400179 -10.8125 27.25 C-10.090625 26.755 -9.36875 26.26 -8.625 25.75 C-3.02949109 22.96556818 4.53052874 23.11241843 10.41015625 24.94140625 C15.4464887 27.58686439 19.39263073 31.86539218 21.1875 37.25 C22.31115997 51.91284161 22.31115997 51.91284161 17.1875 58.25 C11.86272052 63.67689854 6.91888658 65.54182595 -0.625 65.625 C-7.74585985 65.49106533 -12.3746086 64.59348706 -17.51953125 59.58984375 C-25.51780034 50.11257599 -25.6549589 38.04442456 -24.8125 26.25 C-23.62345283 17.68886037 -20.8914969 9.66651904 -14.1953125 3.84375 C-9.52454153 0.59047669 -5.57985726 0.07130808 0 0 Z M-7.8125 36.25 C-10.15022514 39.15200363 -10.77724659 40.97300894 -11.25 44.6875 C-10.65265877 49.55156433 -8.85036536 52.63376196 -5 55.6875 C-1.59989025 56.56181393 0.81373021 56.15368834 4.1875 55.25 C7.83389097 52.08339732 8.92327612 48.92015013 9.28515625 44.2421875 C9.12426897 40.96008705 8.04715313 38.91550282 6.1875 36.25 C1.1053844 32.34068031 -2.70318672 32.45076705 -7.8125 36.25 Z " fill="#FFFFFF" transform="translate(75.8125,2.75)"/>
<path d="M0 0 C5.8413481 3.53685001 9.28207792 8.86393551 11.4375 15.25 C14.51044562 28.46182609 14.3598238 44.92689758 7.20703125 56.73828125 C4.1310912 60.72133499 0.56847471 63.49701401 -4.4375 64.5 C-12.14708103 65.27973007 -18.23699099 65.4087363 -24.4375 60.5 C-30.78875781 54.44414953 -33.54248178 46.24994619 -33.96875 37.5625 C-33.97919358 35.54166681 -33.96866637 33.52061984 -33.9375 31.5 C-33.95296875 30.49710938 -33.9684375 29.49421875 -33.984375 28.4609375 C-33.93528532 18.96208479 -31.76209573 9.85365782 -24.98046875 2.87109375 C-18.37104244 -3.00209267 -8.04990847 -3.48984471 0 0 Z M-16.4375 10.5 C-22.96281855 19.86672309 -21.97089614 32.69019087 -20.4375 43.5 C-19.485906 47.47044392 -17.92545655 49.9724794 -15.125 53 C-12.50456709 54.73834519 -12.50456709 54.73834519 -9.375 54.5625 C-5.63519526 53.20980467 -4.4977015 51.88461675 -2.4375 48.5 C-0.4123336 42.80920983 -0.10233201 37.63655084 -0.125 31.625 C-0.10888672 30.77808594 -0.09277344 29.93117188 -0.07617188 29.05859375 C-0.07078489 22.02319058 -0.87791437 15.19084643 -5.875 9.9375 C-9.79163188 7.74036505 -12.82083152 8.04999877 -16.4375 10.5 Z " fill="#FFFFFF" transform="translate(35.4375,3.5)"/>
</svg>
