<?xml version="1.0" encoding="UTF-8"?>
<svg version="1.1" xmlns="http://www.w3.org/2000/svg" width="2270" height="962">
<path d="M0 0 C29.6520437 0.47825877 60.41960677 7.14401189 88 18 C89.31291016 18.50974365 89.31291016 18.50974365 90.65234375 19.02978516 C119.75555902 30.42255615 146.7467326 45.20782583 171 65 C171.79567383 65.64340332 171.79567383 65.64340332 172.60742188 66.29980469 C187.00317706 78.00801311 200.8416262 91.13628385 212 106 C212.41233887 106.53592773 212.82467773 107.07185547 213.24951172 107.62402344 C236.39443271 137.72506822 260.24325172 180.34855702 260.125 219.3125 C260.12757813 220.17488281 260.13015625 221.03726563 260.1328125 221.92578125 C260 224 260 224 259 225 C258.92794489 226.68608966 258.91613932 228.37500659 258.9375 230.0625 C258.95103516 231.44115234 258.95103516 231.44115234 258.96484375 232.84765625 C258.97644531 233.55792969 258.98804688 234.26820313 259 235 C258.34 235 257.68 235 257 235 C256.87882812 234.30132813 256.75765625 233.60265625 256.6328125 232.8828125 C256.46523438 231.97273437 256.29765625 231.06265625 256.125 230.125 C255.88136719 228.76761719 255.88136719 228.76761719 255.6328125 227.3828125 C255.16955297 224.83494012 255.16955297 224.83494012 253 223 C252.39331055 220.5324707 252.39331055 220.5324707 251.88671875 217.42578125 C251.59728394 215.72373535 251.59728394 215.72373535 251.30200195 213.98730469 C251.09921631 212.77461914 250.89643066 211.56193359 250.6875 210.3125 C248.87958738 200.15431991 246.94820534 190.56610627 243 181 C242.64776367 180.14486816 242.29552734 179.28973633 241.93261719 178.40869141 C224.58338244 136.75771891 200.1965496 98.84756444 164 71 C163.04480469 70.22785156 162.08960938 69.45570313 161.10546875 68.66015625 C140.80578657 52.49701308 117.77666483 40.18344616 94 30 C93.35530762 29.71672852 92.71061523 29.43345703 92.04638672 29.14160156 C62.91160422 16.35611795 31.34175994 11.66005695 0 8 C0 5.36 0 2.72 0 0 Z " fill="#BE4938" transform="translate(0,589)"/>
<path d="M0 0 C0.66 0 1.32 0 2 0 C2.12117188 0.69867188 2.24234375 1.39734375 2.3671875 2.1171875 C2.53476563 3.02726562 2.70234375 3.93734375 2.875 4.875 C3.03742188 5.77992187 3.19984375 6.68484375 3.3671875 7.6171875 C3.83044703 10.16505988 3.83044703 10.16505988 6 12 C6.60668945 14.4675293 6.60668945 14.4675293 7.11328125 17.57421875 C7.40271606 19.27626465 7.40271606 19.27626465 7.69799805 21.01269531 C7.90078369 22.22538086 8.10356934 23.43806641 8.3125 24.6875 C10.12041262 34.84568009 12.05179466 44.43389373 16 54 C16.35223633 54.85513184 16.70447266 55.71026367 17.06738281 56.59130859 C34.41661756 98.24228109 58.8034504 136.15243556 95 164 C96.43279297 165.15822266 96.43279297 165.15822266 97.89453125 166.33984375 C118.19421343 182.50298692 141.22333517 194.81655384 165 205 C165.96703857 205.42490723 165.96703857 205.42490723 166.95361328 205.85839844 C196.08839578 218.64388205 227.65824006 223.33994305 259 227 C259 229.64 259 232.28 259 235 C229.3479563 234.52174123 198.58039323 227.85598811 171 217 C170.12472656 216.6601709 169.24945312 216.3203418 168.34765625 215.97021484 C139.24444098 204.57744385 112.2532674 189.79217417 88 170 C87.46955078 169.57106445 86.93910156 169.14212891 86.39257812 168.70019531 C71.99682294 156.99198689 58.1583738 143.86371615 47 129 C46.58766113 128.46407227 46.17532227 127.92814453 45.75048828 127.37597656 C22.60556729 97.27493178 -1.24325172 54.65144298 -1.125 15.6875 C-1.12757812 14.82511719 -1.13015625 13.96273437 -1.1328125 13.07421875 C-1 11 -1 11 0 10 C0.07205511 8.31391034 0.08386068 6.62499341 0.0625 4.9375 C0.05347656 4.01839844 0.04445313 3.09929687 0.03515625 2.15234375 C0.02355469 1.44207031 0.01195312 0.73179688 0 0 Z " fill="#C04C3B" transform="translate(2011,100)"/>
<path d="M0 0 C0.99 0 1.98 0 3 0 C3.23074219 0.52207031 3.46148438 1.04414063 3.69921875 1.58203125 C6.42735186 7.73920124 9.20177195 13.87439545 12 20 C12.32532715 20.71913574 12.6506543 21.43827148 12.98583984 22.17919922 C23.54921885 45.31557568 39.43859267 65.7618525 57 84 C57.50176758 84.52368164 58.00353516 85.04736328 58.52050781 85.58691406 C65.2810671 92.60833094 72.30687016 98.99274327 80 105 C80.96035156 105.77730469 81.92070312 106.55460937 82.91015625 107.35546875 C103.21664363 123.50310536 126.22617496 135.81777011 150 146 C150.96703857 146.42490723 150.96703857 146.42490723 151.95361328 146.85839844 C181.08839578 159.64388205 212.65824006 164.33994305 244 168 C244 170.64 244 173.28 244 176 C214.25123938 175.52018128 176.24210073 170.24878826 150 155 C149.67 154.01 149.34 153.02 149 152 C152.6777904 152.38713583 155.80735156 153.26085241 159.1875 154.6875 C164.35005102 156.83328424 169.61282524 158.55949206 174.9375 160.25 C175.77885498 160.52030029 176.62020996 160.79060059 177.48706055 161.0690918 C178.68262573 161.44481323 178.68262573 161.44481323 179.90234375 161.828125 C180.61898193 162.0540332 181.33562012 162.27994141 182.07397461 162.51269531 C184.15360665 163.12264076 184.15360665 163.12264076 187 163 C186.40912598 162.8455542 185.81825195 162.6911084 185.20947266 162.53198242 C162.77968079 156.57064027 141.44667014 147.98433034 121 137 C120.34918457 136.65259766 119.69836914 136.30519531 119.02783203 135.94726562 C104.11154786 127.92953797 90.15963906 118.65681273 77 108 C76.45553223 107.55994629 75.91106445 107.11989258 75.35009766 106.66650391 C61.30653424 95.2113138 47.97199848 82.45140701 37 68 C36.03809893 66.766663 35.07583287 65.5336106 34.11328125 64.30078125 C27.36839839 55.57624808 21.37586383 46.62648806 16 37 C15.65485352 36.3827002 15.30970703 35.76540039 14.95410156 35.12939453 C11.10907009 28.19570163 7.49775928 21.14533929 4.0625 14 C3.49660156 12.824375 2.93070313 11.64875 2.34765625 10.4375 C0.96602115 6.91332931 0.37836351 3.7548986 0 0 Z " fill="#BF4B3B" transform="translate(2026,159)"/>
<path d="M0 0 C9.70152029 0.30798477 18.07091268 3.51438711 27 7 C27.89557617 7.34708008 28.79115234 7.69416016 29.71386719 8.05175781 C58.79415551 19.43795527 85.76572524 34.223325 110 54 C110.53044922 54.42893555 111.06089844 54.85787109 111.60742188 55.29980469 C126.00317706 67.00801311 139.8416262 80.13628385 151 95 C151.41233887 95.53592773 151.82467773 96.07185547 152.24951172 96.62402344 C168.42598584 117.6622794 183.20701604 142.13899089 190 168 C188.68 168 187.36 168 186 168 C185.69449219 167.11183594 185.38898438 166.22367188 185.07421875 165.30859375 C176.25245482 140.39127186 163.70926683 117.48147016 147 97 C146.22011719 96.01644531 145.44023437 95.03289062 144.63671875 94.01953125 C132.65517841 79.31745453 119.04146736 65.38770501 103.67431641 54.22558594 C101.93196652 52.95020005 100.22126478 51.639281 98.51171875 50.3203125 C83.80189609 39.08757452 67.7561947 29.81981421 51 22 C50.21625 21.63277832 49.4325 21.26555664 48.625 20.88720703 C33.96741692 14.0594071 19.32826671 7.84091365 3.59765625 3.95703125 C2.74042969 3.64121094 1.88320313 3.32539062 1 3 C0.67 2.01 0.34 1.02 0 0 Z " fill="#C04C3B" transform="translate(61,600)"/>
<path d="M0 0 C7.16718511 0.48890813 13.36031695 3.32685347 19.9375 6.0625 C21.14374023 6.55983643 22.34998047 7.05717285 23.59277344 7.56958008 C31.99227499 11.07087566 40.20397351 14.78576997 48.23339844 19.06591797 C50.03231168 20.01708465 51.84556901 20.93455472 53.6640625 21.84765625 C68.82861322 29.55780134 82.77494081 39.33846319 96 50 C96.97324219 50.76828125 97.94648438 51.5365625 98.94921875 52.328125 C114.59086335 65.06575107 129.1930375 79.62451432 141 96 C141.82777507 97.10020322 142.65722712 98.19914656 143.48828125 99.296875 C156.75030318 117.0431036 168.79269308 137.95367957 175.18359375 159.234375 C175.45300781 159.81703125 175.72242188 160.3996875 176 161 C176.99 161.33 177.98 161.66 179 162 C179.98365326 164.31266441 180.74100173 166.47377176 181.4375 168.875 C181.64850342 169.58027832 181.85950684 170.28555664 182.0769043 171.01220703 C185.44035666 182.59785315 188.97921246 194.85776545 188 207 C187.67 207.33 187.34 207.66 187 208 C186.92794489 209.68608966 186.91613932 211.37500659 186.9375 213.0625 C186.94652344 213.98160156 186.95554687 214.90070313 186.96484375 215.84765625 C186.97644531 216.55792969 186.98804688 217.26820313 187 218 C186.34 218 185.68 218 185 218 C184.87882813 217.30132813 184.75765625 216.60265625 184.6328125 215.8828125 C184.38144531 214.51769531 184.38144531 214.51769531 184.125 213.125 C183.88136719 211.76761719 183.88136719 211.76761719 183.6328125 210.3828125 C183.16955297 207.83494012 183.16955297 207.83494012 181 206 C180.39331055 203.5324707 180.39331055 203.5324707 179.88671875 200.42578125 C179.69295654 199.28955322 179.49919434 198.1533252 179.29956055 196.98266602 C179.09758057 195.77151123 178.89560059 194.56035645 178.6875 193.3125 C177.08792723 184.12237042 175.23252944 175.44250052 171.91796875 166.72265625 C171 164 171 164 171 160 C171.66 160 172.32 160 173 160 C164.8048406 139.94657699 155.66580631 120.64390929 143 103 C142.27296875 101.9790625 141.5459375 100.958125 140.796875 99.90625 C127.75411802 82.07802103 112.54624047 65.47164181 95 52 C93.99839844 51.20464844 92.99679688 50.40929687 91.96484375 49.58984375 C66.47180547 29.44439304 37.48407808 14.79210407 7.01074219 3.73779297 C4.65391996 2.87301434 2.32258875 1.95273539 0 1 C0 0.67 0 0.34 0 0 Z " fill="#DB770D" transform="translate(72,606)"/>
<path d="M0 0 C5.02748827 0.54938245 9.14663773 1.70103915 13.8125 3.625 C39.91447693 13.80679925 68.19494308 18.50610601 96 21 C96 23.64 96 26.28 96 29 C66.25123938 28.52018128 28.24210073 23.24878826 2 8 C1.67 7.01 1.34 6.02 1 5 C4.6777904 5.38713583 7.80735156 6.26085241 11.1875 7.6875 C16.35005102 9.83328424 21.61282524 11.55949206 26.9375 13.25 C27.77885498 13.52030029 28.62020996 13.79060059 29.48706055 14.0690918 C30.284104 14.31957275 31.08114746 14.57005371 31.90234375 14.828125 C32.61898193 15.0540332 33.33562012 15.27994141 34.07397461 15.51269531 C36.15360665 16.12264076 36.15360665 16.12264076 39 16 C38.351521 15.81937012 37.70304199 15.63874023 37.03491211 15.45263672 C24.40223386 11.91168414 12.03333444 8.26458382 0 3 C0 2.01 0 1.02 0 0 Z " fill="#B74438" transform="translate(2174,306)"/>
<path d="M0 0 C0.66 0 1.32 0 2 0 C2.12117188 0.69867188 2.24234375 1.39734375 2.3671875 2.1171875 C2.53476563 3.02726562 2.70234375 3.93734375 2.875 4.875 C3.03742188 5.77992187 3.19984375 6.68484375 3.3671875 7.6171875 C3.83044703 10.16505988 3.83044703 10.16505988 6 12 C6.60668945 14.4675293 6.60668945 14.4675293 7.11328125 17.57421875 C7.40380371 19.27843994 7.40380371 19.27843994 7.70019531 21.01708984 C7.90225586 22.2283252 8.10431641 23.43956055 8.3125 24.6875 C9.90737545 33.82495763 11.73869236 42.49029664 14.984375 51.1796875 C15.92415029 53.78937118 16.53663998 56.27020507 17 59 C16.34 59 15.68 59 15 59 C23.78606242 84.42880343 37.11897942 107.15942505 54 128 C54.49081055 128.6079541 54.98162109 129.2159082 55.48730469 129.84228516 C66.60096836 143.48793788 78.9894561 156.32076749 93 167 C94.18761082 167.92824365 95.37510285 168.85663929 96.5625 169.78515625 C106.61261994 177.5557631 117.16680804 184.37656088 128 191 C127.34 191.33 126.68 191.66 126 192 C123.75462206 190.89760999 121.68849816 189.74258174 119.5625 188.4375 C118.90580322 188.03764893 118.24910645 187.63779785 117.57250977 187.22583008 C90.41539508 170.33053019 64.7223011 147.98580254 46 122 C45.16022443 120.87657857 44.31905442 119.75419829 43.4765625 118.6328125 C30.12799326 100.66230436 19.19351851 80.43324882 12.03515625 59.203125 C11.69355469 58.47609375 11.35195312 57.7490625 11 57 C10.01 56.67 9.02 56.34 8 56 C7.01634674 53.68733559 6.25899827 51.52622824 5.5625 49.125 C5.24599487 48.06708252 5.24599487 48.06708252 4.9230957 46.98779297 C1.55964334 35.40214685 -1.97921246 23.14223455 -1 11 C-0.67 10.67 -0.34 10.34 0 10 C0.07205511 8.31391034 0.08386068 6.62499341 0.0625 4.9375 C0.05347656 4.01839844 0.04445313 3.09929687 0.03515625 2.15234375 C0.02355469 1.44207031 0.01195312 0.73179688 0 0 Z " fill="#D7760E" transform="translate(2011,100)"/>
<path d="M0 0 C7.16718511 0.48890813 13.36031695 3.32685347 19.9375 6.0625 C21.14374023 6.55983643 22.34998047 7.05717285 23.59277344 7.56958008 C31.99227499 11.07087566 40.20397351 14.78576997 48.23339844 19.06591797 C50.03231168 20.01708465 51.84556901 20.93455472 53.6640625 21.84765625 C68.82861322 29.55780134 82.77494081 39.33846319 96 50 C96.97324219 50.76828125 97.94648438 51.5365625 98.94921875 52.328125 C114.59086335 65.06575107 129.1930375 79.62451432 141 96 C141.82777507 97.10020322 142.65722712 98.19914656 143.48828125 99.296875 C153.81386509 113.11776517 162.08843075 128.21897669 169 144 C168.34 144.66 167.68 145.32 167 146 C166.72961914 145.40276123 166.45923828 144.80552246 166.18066406 144.19018555 C157.42998329 125.0109378 147.41997329 107.30368812 134 91 C133.5575293 90.45601562 133.11505859 89.91203125 132.65917969 89.3515625 C121.44484374 75.63198026 109.07078221 62.80325659 95 52 C93.99839844 51.20464844 92.99679688 50.40929687 91.96484375 49.58984375 C66.47180547 29.44439304 37.48407808 14.79210407 7.01074219 3.73779297 C4.65391996 2.87301434 2.32258875 1.95273539 0 1 C0 0.67 0 0.34 0 0 Z " fill="#D6770F" transform="translate(72,606)"/>
<path d="M0 0 C1.44783721 0.19330443 2.89575354 0.38601717 4.34375 0.578125 C7.85510422 1.04527248 11.36532321 1.52039307 14.875 2 C14.875 4.64 14.875 7.28 14.875 10 C-1.02788129 9.74350191 -16.51320666 6.78480638 -32.125 4 C-32.125 2.68 -32.125 1.36 -32.125 0 C-22.01024281 -4.25884513 -10.51669042 -1.43958371 0 0 Z " fill="#C55A20" transform="translate(2255.125,325)"/>
<path d="M0 0 C21.93252806 0.69627073 45.94863378 13.87057641 65 24 C63.68 24.99 62.36 25.98 61 27 C59.73736328 26.32517578 59.73736328 26.32517578 58.44921875 25.63671875 C41.79792399 16.93456927 24.05083512 8.96413459 5.76000977 4.48168945 C3.8671875 4 3.8671875 4 1 3 C0.67 2.01 0.34 1.02 0 0 Z " fill="#B8463B" transform="translate(61,600)"/>
<path d="M0 0 C13.51542952 1.50171439 29.16673759 6.16907587 41 13 C41.75 15.125 41.75 15.125 42 17 C37.05992259 15.41211797 32.196206 13.70566211 27.3515625 11.84472656 C19.33243517 8.7684234 11.30278553 6.20542741 3 4 C3 3.34 3 2.68 3 2 C2.01 2 1.02 2 0 2 C0 1.34 0 0.68 0 0 Z " fill="#B94A40" transform="translate(56,603)"/>
<path d="M0 0 C0.66 0 1.32 0 2 0 C2.23074219 1.29550781 2.46148438 2.59101562 2.69921875 3.92578125 C4.5331305 13.99560662 6.6028853 23.91360106 9.33666992 33.78051758 C10.45915499 37.84052236 11.39731651 41.82095293 12 46 C11.01 45.67 10.02 45.34 9 45 C8.01634674 42.68733559 7.25899827 40.52622824 6.5625 38.125 C6.24599487 37.06708252 6.24599487 37.06708252 5.9230957 35.98779297 C2.53362596 24.31252817 -0.80212413 12.23239303 0 0 Z " fill="#E2191B" transform="translate(2010,111)"/>
<path d="M0 0 C0.66 0 1.32 0 2 0 C5.18276786 7.31069046 7.36292849 14.62175585 9.1875 22.375 C9.57711914 23.94507813 9.57711914 23.94507813 9.97460938 25.546875 C11.68090614 32.68951263 12.597134 39.66964395 13 47 C12.01 47.495 12.01 47.495 11 48 C9.04427797 40.71049062 7.47733833 33.409869 6.0625 26 C4.76262866 19.22498965 3.18019622 12.78451922 0.734375 6.3125 C0 4 0 4 0 0 Z " fill="#E21015" transform="translate(243,766)"/>
<path d="M0 0 C0.99 0.33 1.98 0.66 3 1 C3.98365326 3.31266441 4.74100173 5.47377176 5.4375 7.875 C5.64850342 8.58027832 5.85950684 9.28555664 6.0769043 10.01220703 C9.46637404 21.68747183 12.80212413 33.76760697 12 46 C11.34 46 10.68 46 10 46 C9.76925781 44.70449219 9.53851563 43.40898438 9.30078125 42.07421875 C7.4668695 32.00439338 5.3971147 22.08639894 2.66333008 12.21948242 C1.54084501 8.15947764 0.60268349 4.17904707 0 0 Z " fill="#E4151A" transform="translate(248,767)"/>
<path d="M0 0 C4.57948005 1.39405786 8.70951538 3.29188879 12.9375 5.5 C31.2068089 14.79149576 50.3883824 23.35685878 70.41015625 28.0625 C74 29 74 29 77 31 C69.45642487 30.46230282 62.7934314 28.60484703 55.625 26.25 C54.56539062 25.91484375 53.50578125 25.5796875 52.4140625 25.234375 C45.3542954 22.9503327 38.70685351 20.15763353 32 17 C30.32662832 16.25756597 28.65088687 15.52044687 26.97265625 14.7890625 C7.94941419 6.42886823 7.94941419 6.42886823 0 1 C0 0.67 0 0.34 0 0 Z " fill="#D4740F" transform="translate(2139,292)"/>
<path d="M0 0 C2.53633765 2.53633765 2.53990629 4.05797955 3.11328125 7.57421875 C3.40380371 9.27843994 3.40380371 9.27843994 3.70019531 11.01708984 C3.90225586 12.2283252 4.10431641 13.43956055 4.3125 14.6875 C5.90737545 23.82495763 7.73869236 32.49029664 10.984375 41.1796875 C11.92415029 43.78937118 12.53663998 46.27020507 13 49 C12.01 49 11.02 49 10 49 C-0.27704979 16.18195432 -0.27704979 16.18195432 -1 1 C-0.67 0.67 -0.34 0.34 0 0 Z " fill="#E10F17" transform="translate(2015,110)"/>
<path d="M0 0 C0.84860596 0.13494873 1.69721191 0.26989746 2.5715332 0.40893555 C3.47218506 0.56918213 4.37283691 0.72942871 5.30078125 0.89453125 C7.18328688 1.19852105 9.06610606 1.50057488 10.94921875 1.80078125 C11.8937793 1.95546875 12.83833984 2.11015625 13.81152344 2.26953125 C18.00385963 2.9241728 22.20977899 3.42042986 26.42578125 3.89453125 C27.15434326 3.97791748 27.88290527 4.06130371 28.63354492 4.1472168 C30.29317607 4.33630409 31.95318271 4.52209236 33.61328125 4.70703125 C33.61328125 5.69703125 33.61328125 6.68703125 33.61328125 7.70703125 C19.40252745 7.31608892 5.60496212 5.13428005 -8.38671875 2.70703125 C-5.40867489 0.08707726 -3.92319922 -0.67246422 0 0 Z " fill="#AF2F2A" transform="translate(2236.38671875,327.29296875)"/>
<path d="M0 0 C5.50808397 0.59015185 10.64878069 1.56663769 16 3 C15.01 3.33 14.02 3.66 13 4 C13.83254913 6.23339896 13.83254913 6.23339896 16.28515625 6.8515625 C17.20167969 7.10679687 18.11820313 7.36203125 19.0625 7.625 C19.98160156 7.88539063 20.90070313 8.14578125 21.84765625 8.4140625 C22.55792969 8.60742188 23.26820312 8.80078125 24 9 C24 9.33 24 9.66 24 10 C18.43109483 9.52013969 13.32932432 8.70084819 8 7 C8 7.66 8 8.32 8 9 C8.99 9.33 9.98 9.66 11 10 C2.42857143 9.14285714 2.42857143 9.14285714 -1 7 C0.32 7 1.64 7 3 7 C3 6.34 3 5.68 3 5 C0.03 4.505 0.03 4.505 -3 4 C-2.01 3.67 -1.02 3.34 0 3 C0 2.01 0 1.02 0 0 Z " fill="#C75E21" transform="translate(48,596)"/>
<path d="M0 0 C3.6777904 0.38713583 6.80735156 1.26085241 10.1875 2.6875 C18.24292876 6.05116902 26.66546883 8.43289594 35 11 C35 11.66 35 12.32 35 13 C23.43061007 12.95002423 10.98487941 8.841078 1 3 C0.67 2.01 0.34 1.02 0 0 Z " fill="#B64239" transform="translate(2175,311)"/>
<path d="M0 0 C5.97620937 1.81220659 11.61583748 4.34232956 17.3125 6.875 C18.32634766 7.30941406 19.34019531 7.74382812 20.38476562 8.19140625 C21.34705078 8.62066406 22.30933594 9.04992187 23.30078125 9.4921875 C24.17903564 9.87745605 25.05729004 10.26272461 25.9621582 10.65966797 C28 12 28 12 28.79370117 14.15673828 C28.86177979 14.76501465 28.9298584 15.37329102 29 16 C21.98578907 13.83458719 15.52962492 11.02828258 8.9375 7.8125 C7.49600586 7.11737305 7.49600586 7.11737305 6.02539062 6.40820312 C3.6812173 5.2769354 1.33954029 4.14080989 -1 3 C-0.67 2.01 -0.34 1.02 0 0 Z " fill="#B94A42" transform="translate(2147,298)"/>
<path d="M0 0 C0.66 0 1.32 0 2 0 C2.14099121 0.93271729 2.28198242 1.86543457 2.42724609 2.82641602 C2.95665501 6.31396772 3.49015537 9.80084385 4.02636719 13.28735352 C4.25683068 14.79133758 4.4856999 16.2955669 4.71289062 17.80004883 C5.04129486 19.97284613 5.37558031 22.14467254 5.7109375 24.31640625 C5.90993652 25.62037354 6.10893555 26.92434082 6.31396484 28.26782227 C6.94254268 32.04082609 6.94254268 32.04082609 8.10400391 35.79663086 C9.02229121 39.07969563 8.97503976 40.78236881 8 44 C5.58053512 40.37080268 4.88985878 36.82029536 4 32.625 C3.82629883 31.81933594 3.65259766 31.01367188 3.47363281 30.18359375 C1.34079608 20.11564401 -0.41964766 10.32799509 0 0 Z " fill="#DE690F" transform="translate(2011,100)"/>
<path d="M0 0 C5.61 0.33 11.22 0.66 17 1 C17 1.33 17 1.66 17 2 C12.545 2.495 12.545 2.495 8 3 C9.45792969 3.20496094 10.91585938 3.40992188 12.41796875 3.62109375 C14.34115641 3.89315444 16.26433291 4.16529399 18.1875 4.4375 C19.14720703 4.57220703 20.10691406 4.70691406 21.09570312 4.84570312 C22.49272461 5.04389648 22.49272461 5.04389648 23.91796875 5.24609375 C24.77156982 5.36654053 25.6251709 5.4869873 26.50463867 5.61108398 C29.02066964 6.00322148 31.50697664 6.48265373 34 7 C34 7.33 34 7.66 34 8 C22.6095425 7.41030329 11.32486965 6.35007127 0 5 C0 3.35 0 1.7 0 0 Z " fill="#D27010" transform="translate(0,589)"/>
<path d="M0 0 C2.97 0.33 5.94 0.66 9 1 C7.68 1.33 6.36 1.66 5 2 C4.67 2.66 4.34 3.32 4 4 C2.35 4 0.7 4 -1 4 C-1 4.99 -1 5.98 -1 7 C-7.95660771 6.42978625 -14.31427305 4.98697306 -21 3 C-13.6841534 1.03228954 -7.17323382 0.34902228 0 3 C0 2.01 0 1.02 0 0 Z " fill="#C14E14" transform="translate(2224,321)"/>
<path d="M0 0 C1.32 0 2.64 0 4 0 C4.97983928 2.60391539 5.95889794 5.20811968 6.9375 7.8125 C7.21529297 8.55048828 7.49308594 9.28847656 7.77929688 10.04882812 C8.18051758 11.11713867 8.18051758 11.11713867 8.58984375 12.20703125 C8.83597412 12.8616333 9.08210449 13.51623535 9.33569336 14.19067383 C9.92037033 15.78311815 10.46355559 17.39066676 11 19 C10.01 19.99 9.02 20.98 8 22 C6.66108439 18.71057634 5.32982297 15.41810891 4 12.125 C3.6184375 11.18785156 3.236875 10.25070313 2.84375 9.28515625 C2.4828125 8.38925781 2.121875 7.49335938 1.75 6.5703125 C1.41484375 5.74289551 1.0796875 4.91547852 0.734375 4.06298828 C0 2 0 2 0 0 Z " fill="#CD5737" transform="translate(2019,156)"/>
<path d="M0 0 C1.32 0 2.64 0 4 0 C5.19996934 2.95342843 6.38281104 5.91341894 7.5625 8.875 C7.90474609 9.71675781 8.24699219 10.55851563 8.59960938 11.42578125 C8.91865234 12.23144531 9.23769531 13.03710938 9.56640625 13.8671875 C9.86490479 14.61081543 10.16340332 15.35444336 10.47094727 16.12060547 C11 18 11 18 10 20 C9.01 20 8.02 20 7 20 C6.01811439 17.41767086 5.03940411 14.83421317 4.0625 12.25 C3.78470703 11.52039063 3.50691406 10.79078125 3.22070312 10.0390625 C2.95322266 9.33007812 2.68574219 8.62109375 2.41015625 7.890625 C2.16402588 7.24125977 1.91789551 6.59189453 1.66430664 5.92285156 C0.98874565 3.967424 0.47199954 2.01334243 0 0 Z " fill="#CA4E2F" transform="translate(240,748)"/>
<path d="M0 0 C0.99 0 1.98 0 3 0 C4.19706817 2.6210121 5.38288646 5.24614696 6.5625 7.875 C6.90474609 8.62136719 7.24699219 9.36773437 7.59960938 10.13671875 C8.45973857 12.06549332 9.23616798 14.0311033 10 16 C9.67 16.66 9.34 17.32 9 18 C8.01 18 7.02 18 6 18 C0.44419134 6.66287016 0.44419134 6.66287016 0 0 Z " fill="#CC5231" transform="translate(2026,159)"/>
<path d="M0 0 C0 0.66 0 1.32 0 2 C-8.89291917 2.48506832 -17.30940593 0.67625695 -26 -1 C-26 -1.33 -26 -1.66 -26 -2 C-17.05920416 -3.74928614 -8.75569237 -2.11831267 0 0 Z " fill="#B33A34" transform="translate(51,601)"/>
<path d="M0 0 C0.33 0.66 0.66 1.32 1 2 C0.36669922 3.66064453 0.36669922 3.66064453 -0.6953125 5.6328125 C-1.08203125 6.35726562 -1.46875 7.08171875 -1.8671875 7.828125 C-2.28226563 8.58609375 -2.69734375 9.3440625 -3.125 10.125 C-3.516875 10.85976563 -3.90875 11.59453125 -4.3125 12.3515625 C-7.01253456 17.36339135 -9.92680893 22.20881541 -13 27 C-13.99 26.67 -14.98 26.34 -16 26 C-15.34773437 24.96101562 -14.69546875 23.92203125 -14.0234375 22.8515625 C-9.27514249 15.27755041 -4.55055458 7.69524677 0 0 Z " fill="#F39334" transform="translate(235,935)"/>
<path d="M0 0 C4.66403389 4.66403389 4.125 14.48413975 4.125 20.8125 C4.09392602 22.20860931 4.05669406 23.60469624 4 25 C3.34 25 2.68 25 2 25 C-0.29612756 8.29157175 -0.29612756 8.29157175 0 0 Z " fill="#DE6B11" transform="translate(255,799)"/>
<path d="M0 0 C-0.350625 0.61875 -0.70125 1.2375 -1.0625 1.875 C-1.371875 2.57625 -1.68125 3.2775 -2 4 C-1.67 4.66 -1.34 5.32 -1 6 C-4.3 6 -7.6 6 -11 6 C-11 4.68 -11 3.36 -11 2 C-7.17679443 0.57741188 -4.08718695 -0.24042276 0 0 Z " fill="#BC4516" transform="translate(2234,323)"/>
<path d="M0 0 C0.72832031 -0.01611328 1.45664062 -0.03222656 2.20703125 -0.04882812 C4.3203125 -0.05078125 4.3203125 -0.05078125 7.875 0.3125 C8.535 1.3025 9.195 2.2925 9.875 3.3125 C2.47260355 3.44136183 -4.76459083 3.10975902 -12.125 2.3125 C-8.31749361 -0.18929085 -4.39529893 -0.01965697 0 0 Z " fill="#B03026" transform="translate(16.125,590.6875)"/>
<path d="M0 0 C0.99 0.33 1.98 0.66 3 1 C4.16796875 3.87109375 4.16796875 3.87109375 5.1875 7.4375 C5.53167969 8.61183594 5.87585938 9.78617188 6.23046875 10.99609375 C7 14 7 14 7 16 C6.01 16 5.02 16 4 16 C3.32586789 14.08594633 2.6609668 12.16863974 2 10.25 C1.62875 9.18265625 1.2575 8.1153125 0.875 7.015625 C0 4 0 4 0 0 Z " fill="#DF1E1D" transform="translate(248,767)"/>
<path d="M0 0 C2.03414995 3.05122492 2.77922779 5.29017607 3.6875 8.8125 C3.95949219 9.82957031 4.23148438 10.84664062 4.51171875 11.89453125 C5.03517129 15.22368942 4.72860514 17.72861182 4 21 C2.23287271 17.78213065 1.2302071 14.61245966 0.3125 11.0625 C-0.09548828 9.53302734 -0.09548828 9.53302734 -0.51171875 7.97265625 C-1.00900823 4.9451579 -0.80534268 2.93490654 0 0 Z " fill="#DF690D" transform="translate(251,780)"/>
<path d="M0 0 C0.99 0 1.98 0 3 0 C3.6708712 1.6232687 4.33657029 3.24867578 5 4.875 C5.556875 6.23238281 5.556875 6.23238281 6.125 7.6171875 C7 10 7 10 7 12 C6.34 12 5.68 12 5 12 C4.67 12.66 4.34 13.32 4 14 C3.32471777 12.42032193 2.66010306 10.83608097 2 9.25 C1.62875 8.36828125 1.2575 7.4865625 0.875 6.578125 C0 4 0 4 0 0 Z " fill="#C74524" transform="translate(238,754)"/>
<path d="M0 0 C6.02900687 0.51241107 12.02004643 1.069785 18 2 C18 2.33 18 2.66 18 3 C11.54450809 4.32420347 4.89489786 5.37422887 -1 2 C-0.67 1.34 -0.34 0.68 0 0 Z " fill="#BC5047" transform="translate(2234,323)"/>
<path d="M0 0 C2.64680904 0.11339204 5.29177518 0.24012873 7.9375 0.375 C9.06961914 0.42140625 9.06961914 0.42140625 10.22460938 0.46875 C12.15507395 0.5726315 14.07942081 0.77895614 16 1 C16.33 1.66 16.66 2.32 17 3 C11.39 3 5.78 3 0 3 C0 2.01 0 1.02 0 0 Z " fill="#AD2A25" transform="translate(0,594)"/>
<path d="M0 0 C2.97 0.33 5.94 0.66 9 1 C9 1.99 9 2.98 9 4 C3.39 3.67 -2.22 3.34 -8 3 C-8 2.67 -8 2.34 -8 2 C-5.36 2 -2.72 2 0 2 C0 1.34 0 0.68 0 0 Z " fill="#BF594E" transform="translate(2261,331)"/>
<path d="M0 0 C3.3 0.33 6.6 0.66 10 1 C9.67 1.99 9.34 2.98 9 4 C3.72 3.67 -1.56 3.34 -7 3 C-7 2.67 -7 2.34 -7 2 C-3.535 1.505 -3.535 1.505 0 1 C0 0.67 0 0.34 0 0 Z " fill="#BC5045" transform="translate(16,595)"/>
<path d="M0 0 C4.86896303 0.59619955 9.32790951 1.56976822 14 3 C14 3.66 14 4.32 14 5 C10.37 4.67 6.74 4.34 3 4 C3 3.34 3 2.68 3 2 C2.01 2 1.02 2 0 2 C0 1.34 0 0.68 0 0 Z " fill="#AD2A25" transform="translate(56,603)"/>
<path d="M0 0 C5.61 0.33 11.22 0.66 17 1 C17 1.33 17 1.66 17 2 C8.585 2.495 8.585 2.495 0 3 C0 2.01 0 1.02 0 0 Z " fill="#C15F57" transform="translate(0,589)"/>
<path d="M0 0 C1.32 0 2.64 0 4 0 C4.66 2.64 5.32 5.28 6 8 C5.34 8 4.68 8 4 8 C3.67 8.66 3.34 9.32 3 10 C2.01 6.7 1.02 3.4 0 0 Z " fill="#D35F36" transform="translate(2019,156)"/>
<path d="M0 0 C2.64 0 5.28 0 8 0 C8.33 1.32 8.66 2.64 9 4 C4.545 3.01 4.545 3.01 0 2 C0 1.34 0 0.68 0 0 Z " fill="#B03229" transform="translate(2215,320)"/>
<path d="M0 0 C2.35953094 2.35953094 2.49141413 3.77895617 3 7 C2.34 7 1.68 7 1 7 C0.67 7.66 0.34 8.32 0 9 C-0.99 6.36 -1.98 3.72 -3 1 C-2.01 0.67 -1.02 0.34 0 0 Z " fill="#CE593C" transform="translate(237,747)"/>
<path d="M0 0 C3.96 0.33 7.92 0.66 12 1 C12 1.33 12 1.66 12 2 C7.59085217 3.10228696 3.51617599 3.07654536 -1 3 C-0.67 2.01 -0.34 1.02 0 0 Z " fill="#BD5349" transform="translate(25,592)"/>
<path d="M0 0 C1.953125 0.35807292 3.90625 0.71614583 5.859375 1.07421875 C5.529375 2.06421875 5.199375 3.05421875 4.859375 4.07421875 C1.229375 3.74421875 -2.400625 3.41421875 -6.140625 3.07421875 C-2.140625 0.07421875 -2.140625 0.07421875 0 0 Z " fill="#BC5042" transform="translate(2234.140625,326.92578125)"/>
<path d="M0 0 C7.42857143 -0.28571429 7.42857143 -0.28571429 11 2 C9.68 2 8.36 2 7 2 C7 2.66 7 3.32 7 4 C4.69 3.34 2.38 2.68 0 2 C0 1.34 0 0.68 0 0 Z " fill="#B94A40" transform="translate(2208,318)"/>
<path d="M0 0 C4.75 0.875 4.75 0.875 7 2 C7.625 4.0625 7.625 4.0625 8 6 C2.33846154 4.52307692 2.33846154 4.52307692 0.625 1.875 C0.41875 1.25625 0.2125 0.6375 0 0 Z " fill="#B54037" transform="translate(2161,305)"/>
<path d="M0 0 C0 0.99 0 1.98 0 3 C0.99 3.33 1.98 3.66 3 4 C-5.57142857 3.14285714 -5.57142857 3.14285714 -9 1 C-5.92677456 0.08941469 -3.19902639 -0.08886184 0 0 Z " fill="#C15F55" transform="translate(56,602)"/>
<path d="M0 0 C0 0.99 0 1.98 0 3 C-3.96 2.67 -7.92 2.34 -12 2 C-12 1.67 -12 1.34 -12 1 C-7.95858806 0.36605303 -4.0934693 -0.12404452 0 0 Z " fill="#C15E55" transform="translate(37,598)"/>
<path d="M0 0 C1.4800841 0.11362262 2.95910074 0.24122908 4.4375 0.375 C5.26121094 0.44460938 6.08492187 0.51421875 6.93359375 0.5859375 C7.95646484 0.79089844 7.95646484 0.79089844 9 1 C9.33 1.66 9.66 2.32 10 3 C6.7 3 3.4 3 0 3 C0 2.01 0 1.02 0 0 Z " fill="#B0312D" transform="translate(2223,326)"/>
<path d="M0 0 C2.64 0 5.28 0 8 0 C8 0.99 8 1.98 8 3 C5.69 3 3.38 3 1 3 C0.67 2.01 0.34 1.02 0 0 Z " fill="#B43D35" transform="translate(2238,329)"/>
<path d="M0 0 C0.33 0.99 0.66 1.98 1 3 C-2.63 2.67 -6.26 2.34 -10 2 C-6.3558226 -0.4294516 -4.28758728 -0.16179575 0 0 Z " fill="#AC2518" transform="translate(2253,326)"/>
<path d="M0 0 C4.95 0.99 4.95 0.99 10 2 C10 2.66 10 3.32 10 4 C7.03 3.67 4.06 3.34 1 3 C0.67 2.01 0.34 1.02 0 0 Z " fill="#A9211C" transform="translate(2200,320)"/>
<path d="M0 0 C2.35953094 2.35953094 2.49141413 3.77895617 3 7 C1.68 7 0.36 7 -1 7 C-1.33 5.02 -1.66 3.04 -2 1 C-1.34 0.67 -0.68 0.34 0 0 Z " fill="#D5643B" transform="translate(248,761)"/>
<path d="M0 0 C3.63 0 7.26 0 11 0 C11 0.99 11 1.98 11 3 C9.741875 2.87625 8.48375 2.7525 7.1875 2.625 C6.12595703 2.52058594 6.12595703 2.52058594 5.04296875 2.4140625 C3 2 3 2 0 0 Z " fill="#C36359" transform="translate(2203,323)"/>
<path d="M0 0 C0.99 0.33 1.98 0.66 3 1 C3.33 2.65 3.66 4.3 4 6 C3.01 6.33 2.02 6.66 1 7 C0.67 4.69 0.34 2.38 0 0 Z " fill="#C84B2E" transform="translate(2023,164)"/>
<path d="M0 0 C0 2.97 0 5.94 0 9 C-0.66 9 -1.32 9 -2 9 C-2.33 6.36 -2.66 3.72 -3 1 C-1 0 -1 0 0 0 Z " fill="#F19740" transform="translate(259,815)"/>
<path d="M0 0 C1.32 0.33 2.64 0.66 4 1 C4.33 2.32 4.66 3.64 5 5 C4.34 5 3.68 5 3 5 C2.67 5.66 2.34 6.32 2 7 C1.34 4.69 0.68 2.38 0 0 Z " fill="#D1552F" transform="translate(240,761)"/>
<path d="M0 0 C1.98 0 3.96 0 6 0 C6.33 0.99 6.66 1.98 7 3 C5.02 3 3.04 3 1 3 C0.67 2.01 0.34 1.02 0 0 Z " fill="#B1342B" transform="translate(61,600)"/>
<path d="M0 0 C2.97 0.33 5.94 0.66 9 1 C5.00889681 2.9955516 3.30013434 3.19546065 -1 3 C-0.67 2.01 -0.34 1.02 0 0 Z " fill="#BD534A" transform="translate(38,594)"/>
<path d="M0 0 C2.97 0.33 5.94 0.66 9 1 C7.68 1.33 6.36 1.66 5 2 C4.67 2.66 4.34 3.32 4 4 C2.68 3.67 1.36 3.34 0 3 C0 2.01 0 1.02 0 0 Z " fill="#BE5850" transform="translate(2224,321)"/>
<path d="M0 0 C0.66 0 1.32 0 2 0 C2.33 2.64 2.66 5.28 3 8 C2.01 8.33 1.02 8.66 0 9 C0 6.03 0 3.06 0 0 Z " fill="#F19740" transform="translate(2011,100)"/>
<path d="M0 0 C2.64 0.33 5.28 0.66 8 1 C6.68 1.33 5.36 1.66 4 2 C4 2.66 4 3.32 4 4 C2.68 3.67 1.36 3.34 0 3 C0 2.01 0 1.02 0 0 Z " fill="#C05C50" transform="translate(48,596)"/>
<path d="M0 0 C0 0.99 0 1.98 0 3 C-2.97 2.67 -5.94 2.34 -9 2 C-9 1.67 -9 1.34 -9 1 C-5.846632 0.29925156 -3.27275026 0 0 0 Z " fill="#BF5A51" transform="translate(2223,325)"/>
<path d="" fill="#E30613" transform="translate(0,0)"/>
<path d="" fill="#E30613" transform="translate(0,0)"/>
</svg>
