<?xml version="1.0" encoding="UTF-8"?>
<svg version="1.1" xmlns="http://www.w3.org/2000/svg" width="70" height="70">
<path d="M0 0 C0.61875 0.48082031 1.2375 0.96164062 1.875 1.45703125 C4.94896543 3.68904659 7.96676948 3.84181935 11.66015625 4.375 C14.35785734 5.09558794 15.32182394 5.79483573 17 8 C17.80859375 9.90234375 17.80859375 9.90234375 18.4375 11.9375 C19.42518468 14.8217494 19.9374114 15.93919965 22.1875 18.125 C24 20 24 20 24.375 23.0625 C24 26 24 26 22 29 C21.90806696 31.12178095 21.90806696 31.12178095 22.125 33.375 C22.19054375 36.73957906 22.08769538 37.84484664 20.375 40.875 C17.75615092 43.21818076 15.1317616 44.4341192 12 46 C11.34 46.86625 10.68 47.7325 10 48.625 C8 51 8 51 5.1875 51.875 C2 52 2 52 -1.4375 51.5 C-5.02383934 50.79277314 -5.02383934 50.79277314 -8.625 51.75 C-9.73875 51.8325 -10.8525 51.915 -12 52 C-14.3125 50 -14.3125 50 -15.47265625 48.59765625 C-18.17949245 45.76620867 -21.60643208 43.84972619 -24.890625 41.74609375 C-27.24862381 39.79419474 -27.7032929 38.99034212 -28 36 C-27.979375 34.824375 -27.95875 33.64875 -27.9375 32.4375 C-27.6930746 28.87594836 -27.6930746 28.87594836 -30 26 C-30.5 23.25 -30.5 23.25 -30 20 C-28.63085467 18.12120435 -27.11726789 16.48865783 -25.515625 14.8046875 C-23.96210326 12.95487554 -23.2435389 11.44628343 -22.4375 9.1875 C-21 6 -21 6 -18.75 4.6875 C-17.8425 4.460625 -16.935 4.23375 -16 4 C-1.09497207 -0.11173184 -1.09497207 -0.11173184 0 0 Z M-7.8125 4.375 C-10.28813716 6.21404475 -11.43928483 6.22111906 -14.4375 6.5625 C-17.64243464 7.1624385 -18.67477488 7.54132869 -20.58984375 10.2421875 C-21.4272615 11.99847398 -22.210741 13.78182644 -22.9296875 15.58984375 C-24 18 -24 18 -25.6484375 19.64453125 C-26.09445313 20.09183594 -26.54046875 20.53914063 -27 21 C-26.80315654 23.85518209 -26.80315654 23.85518209 -26 27 C-25.835 28.175625 -25.67 29.35125 -25.5 30.5625 C-25.335 31.696875 -25.17 32.83125 -25 34 C-24.979375 34.86625 -24.95875 35.7325 -24.9375 36.625 C-23.57819381 40.06857567 -21.13262675 40.97659648 -17.97265625 42.7265625 C-16 44 -16 44 -14.125 46.875 C-12.24375026 49.24439686 -12.24375026 49.24439686 -9.8203125 49.0546875 C-8.07397958 48.84767539 -6.33235798 48.59728491 -4.59765625 48.30859375 C-2.00207967 48.00024706 -0.21389128 48.24202455 2.3125 48.8125 C3.529375 48.874375 4.74625 48.93625 6 49 C8.40086691 46.63035471 8.40086691 46.63035471 9.63671875 44.66796875 C11.30104253 42.63167576 12.97128791 41.85605594 15.3125 40.6875 C17.42413918 39.58088318 17.42413918 39.58088318 19 38 C19.49159272 35.54203638 19.39921911 33.56678921 19.0859375 31.0859375 C19 29 19 29 21 26 C21.58488562 23.62875402 21.58488562 23.62875402 21 21 C19.7969481 19.50431385 18.58270486 18.01327626 17.26953125 16.61328125 C16 15 16 15 14.875 11.3125 C13.36105075 7.8381579 13.36105075 7.8381579 10.44140625 6.9609375 C8.4729833 6.45411339 6.490056 6.00002436 4.49609375 5.60546875 C2 5 2 5 0 3 C-4.19307335 2.51746613 -4.19307335 2.51746613 -7.8125 4.375 Z " fill="#CD6C26" transform="translate(38,9)"/>
<path d="M0 0 C4.00801424 3.31632384 6.6683458 6.90155846 7.46875 12.11328125 C7.66918927 17.08250471 7.00056451 20.70079345 4.125 24.875 C-0.64337901 29.57715152 -3.81172815 32.02648984 -10.625 32.1875 C-15.92637515 32.13049597 -18.87104727 31.58598058 -22.875 27.875 C-27.29614478 23.2485015 -29.26903699 19.62311229 -29.1484375 13.0625 C-28.56383302 8.38566419 -26.63180174 4.52174688 -23.19140625 1.296875 C-16.265851 -3.88612119 -7.52878756 -4.9433076 0 0 Z M-23.75 5.9375 C-26.14617263 10.06424175 -26.49047381 14.21620518 -25.875 18.875 C-24.53325533 22.55750576 -22.63242471 25.26087186 -19.5625 27.75 C-13.57589303 30.25602152 -8.90778416 30.22108273 -2.875 27.875 C0.59016098 25.56489268 2.55868211 23.71144382 4.125 19.875 C4.81776172 14.99344651 4.64239191 10.99256653 2.5625 6.5 C-1.31843037 2.32053653 -5.05830728 -0.28682019 -10.875 -0.625 C-16.18481967 -0.33631077 -20.16935223 1.99878745 -23.75 5.9375 Z " fill="#CC6C26" transform="translate(45.875,20.125)"/>
<path d="M0 0 C1.051875 0.185625 1.051875 0.185625 2.125 0.375 C2.9453125 2.5078125 2.9453125 2.5078125 3.125 5.375 C1.47137122 7.64646811 0.00049441 9.34043716 -2 11.25 C-2.48726562 11.76046875 -2.97453125 12.2709375 -3.4765625 12.796875 C-5.82696681 15.10977286 -7.16537126 16.37604204 -10.53515625 16.37109375 C-12.9315332 15.35093328 -14.37261301 14.41490404 -16.1875 12.5625 C-16.69925781 12.06105469 -17.21101563 11.55960938 -17.73828125 11.04296875 C-18.875 9.375 -18.875 9.375 -18.875 5.375 C-13.45961538 4.14423077 -13.45961538 4.14423077 -10.5 5.3125 C-9.96375 5.663125 -9.4275 6.01375 -8.875 6.375 C-8.49988281 5.941875 -8.12476563 5.50875 -7.73828125 5.0625 C-3.50621784 0.45733276 -3.50621784 0.45733276 0 0 Z M-0.875 2.375 C-1.34550781 2.86871094 -1.81601562 3.36242187 -2.30078125 3.87109375 C-2.92339844 4.51175781 -3.54601563 5.15242188 -4.1875 5.8125 C-4.80238281 6.45058594 -5.41726562 7.08867188 -6.05078125 7.74609375 C-7.875 9.375 -7.875 9.375 -10.875 10.375 C-13.5625 8.4375 -13.5625 8.4375 -15.875 6.375 C-14.58200306 9.25937779 -13.21558637 11.24719421 -10.875 13.375 C-7.88279732 12.01129701 -5.58473471 10.42591917 -3.125 8.25 C-2.51140625 7.71117187 -1.8978125 7.17234375 -1.265625 6.6171875 C-0.80671875 6.20726562 -0.3478125 5.79734375 0.125 5.375 C-0.205 4.385 -0.535 3.395 -0.875 2.375 Z " fill="#CC6C27" transform="translate(42.875,26.625)"/>
<path d="M0 0 C4 1 4 1 4 1 Z " fill="#D27827" transform="translate(41,62)"/>
<path d="M0 0 C4 1 4 1 4 1 Z " fill="#C76027" transform="translate(25,62)"/>
<path d="M0 0 C3 1 3 1 3 1 Z " fill="#CC6D27" transform="translate(34,7)"/>
</svg>
