<?xml version="1.0" encoding="UTF-8"?>
<svg version="1.1" xmlns="http://www.w3.org/2000/svg" width="60" height="60">
<path d="M0 0 C2.475 0.495 2.475 0.495 5 1 C5 2.65 5 4.3 5 6 C6.32 6.33 7.64 6.66 9 7 C9 8.32 9 9.64 9 11 C8.01 11.33 7.02 11.66 6 12 C8.475 12.495 8.475 12.495 11 13 C11.66 12.01 12.32 11.02 13 10 C12.01 9.67 11.02 9.34 10 9 C10 7.68 10 6.36 10 5 C13.75 3.875 13.75 3.875 16 5 C16 5.66 16 6.32 16 7 C16.99 7.33 17.98 7.66 19 8 C19 9.32 19 10.64 19 12 C18.195625 12.61875 17.39125 13.2375 16.5625 13.875 C13.72281058 15.81662581 13.72281058 15.81662581 13.125 19.1875 C13.08375 20.115625 13.0425 21.04375 13 22 C14.49743119 23.49743119 15.98824239 23.33202693 18.0625 23.5625 C19.361875 23.706875 20.66125 23.85125 22 24 C22.495 26.475 22.495 26.475 23 29 C19.18243176 30.37432457 15.92744671 29.67975039 12 29 C11.66574265 31.37374861 11.66574265 31.37374861 12 34 C13.9600281 35.63676257 13.9600281 35.63676257 16 37 C16 37.99 16 38.98 16 40 C12.21472479 39.48847632 10.55891312 38.79154158 8 36 C6.515 35.505 6.515 35.505 5 35 C4.67 35.99 4.34 36.98 4 38 C2.02 37.67 0.04 37.34 -2 37 C-4.29633824 40.44450737 -4.54016485 42.93812283 -5 47 C-7.64 47 -10.28 47 -13 47 C-13 46.01 -13 45.02 -13 44 C-12.01 44 -11.02 44 -10 44 C-9.01 40.37 -8.02 36.74 -7 33 C-8.485 32.505 -8.485 32.505 -10 32 C-10.33 30.68 -10.66 29.36 -11 28 C-17.435 28.495 -17.435 28.495 -24 29 C-24 27.68 -24 26.36 -24 25 C-18.06 23.515 -18.06 23.515 -12 22 C-12 20.35 -12 18.7 -12 17 C-15.465 15.02 -15.465 15.02 -19 13 C-18.67 11.35 -18.34 9.7 -18 8 C-17.01 8 -16.02 8 -15 8 C-14.34 6.68 -13.68 5.36 -13 4 C-11.35 4.33 -9.7 4.66 -8 5 C-8.57344937 7.86724686 -8.8614515 8.8614515 -11 11 C-6.94568308 12.15837626 -4.78187881 11.83691257 -1 10 C-0.67 6.7 -0.34 3.4 0 0 Z M3 8 C4 10 4 10 4 10 Z " fill="#CE6E25" transform="translate(31,6)"/>
<path d="M0 0 C1.32 0 2.64 0 4 0 C3.67 1.32 3.34 2.64 3 4 C2.01 4 1.02 4 0 4 C0 2.68 0 1.36 0 0 Z " fill="#C76127" transform="translate(24,10)"/>
<path d="M0 0 C1.32 0 2.64 0 4 0 C4 0.99 4 1.98 4 3 C2.68 3 1.36 3 0 3 C0 2.01 0 1.02 0 0 Z " fill="#CB6927" transform="translate(27,52)"/>
</svg>
