<?xml version="1.0" encoding="UTF-8"?>
<svg version="1.1" xmlns="http://www.w3.org/2000/svg" width="60" height="60">
<path d="M0 0 C1.98 0 3.96 0 6 0 C6 0.66 6 1.32 6 2 C5.14277344 2.38671875 4.28554688 2.7734375 3.40234375 3.171875 C2.25894531 3.69265625 1.11554687 4.2134375 -0.0625 4.75 C-1.18785156 5.26046875 -2.31320313 5.7709375 -3.47265625 6.296875 C-5.90726892 7.4723912 -8.15744082 8.65259205 -10.46875 10.0234375 C-13.97271591 12.06161259 -17.62666669 13.51480799 -21.4375 14.875 C-22.84257252 15.38767947 -24.24751663 15.90071098 -25.65234375 16.4140625 C-26.3676123 16.67348633 -27.08288086 16.93291016 -27.81982422 17.20019531 C-29.99299459 17.99743004 -32.1556073 18.8183056 -34.31640625 19.6484375 C-35.01773682 19.91672363 -35.71906738 20.18500977 -36.44165039 20.46142578 C-37.76879395 20.96986769 -39.09489013 21.48105614 -40.41967773 21.99560547 C-44.89632747 23.69702592 -49.34692582 24.90879234 -54 26 C-53.20996094 22.16357422 -53.20996094 22.16357422 -51.3203125 20.69140625 C-48.88851494 19.44089114 -46.45890268 18.19671447 -44 17 C-43.16984375 16.58621094 -42.3396875 16.17242188 -41.484375 15.74609375 C-35.63720902 12.9538094 -29.65439605 10.7910585 -23.4934082 8.81347656 C-19.76894234 7.61409654 -16.16126583 6.2836279 -12.5625 4.75 C-8.33721841 2.99477415 -4.55539588 2.33743673 0 2 C0 1.34 0 0.68 0 0 Z " fill="#CC6825" transform="translate(54,12)"/>
<path d="M0 0 C0.495 1.485 0.495 1.485 1 3 C-6.98386422 8.4127893 -15.2407479 12.76151274 -23.89746094 16.97070312 C-26.69956204 18.34247022 -29.48323571 19.74960384 -32.26782227 21.15649414 C-37.56696537 23.82852773 -42.88180345 26.46917693 -48.25 29 C-49.08015625 29.391875 -49.9103125 29.78375 -50.765625 30.1875 C-53 31 -53 31 -57 31 C-57 30.01 -57 29.02 -57 28 C-56.030625 27.71125 -55.06125 27.4225 -54.0625 27.125 C-50.89335797 26.35785318 -50.89335797 26.35785318 -50 24 C-49.01 24 -48.02 24 -47 24 C-47 23.34 -47 22.68 -47 22 C-45.97519531 21.7215625 -44.95039062 21.443125 -43.89453125 21.15625 C-32.57498705 17.90830454 -22.39108911 12.16698049 -12.2265625 6.3671875 C-8.22133464 4.09043385 -4.13706909 2.02651014 0 0 Z " fill="#CD6C25" transform="translate(59,15)"/>
<path d="M0 0 C-1.53069618 4.59208853 -5.1277335 6.29535049 -9 9 C-9.68449219 9.48726562 -10.36898437 9.97453125 -11.07421875 10.4765625 C-27.7431484 22 -27.7431484 22 -35 22 C-35 21.34 -35 20.68 -35 20 C-33.03514236 18.56618496 -31.06178973 17.28563336 -29 16 C-28.18789063 15.47019531 -27.37578125 14.94039062 -26.5390625 14.39453125 C-20.95890225 10.77302324 -15.30202126 7.44848243 -9.41015625 4.359375 C-6.96974548 3.06320287 -6.96974548 3.06320287 -4.87109375 1.328125 C-3 0 -3 0 0 0 Z " fill="#CF7226" transform="translate(50,26)"/>
<path d="M0 0 C0 0.66 0 1.32 0 2 C-1.09054688 2.36351562 -2.18109375 2.72703125 -3.3046875 3.1015625 C-4.02527344 3.34181152 -4.74585938 3.58206055 -5.48828125 3.82958984 C-7.09231804 4.36415939 -8.69648687 4.89833289 -10.30078125 5.43212891 C-14.58128224 6.85701486 -18.85932782 8.28857006 -23.1328125 9.734375 C-23.9489502 10.00942871 -24.76508789 10.28448242 -25.60595703 10.56787109 C-27.18326713 11.09964625 -28.75978785 11.63376948 -30.33544922 12.17041016 C-35.77513519 14 -35.77513519 14 -38 14 C-36.9865501 11.21010055 -36.38071275 10.19035638 -33.6796875 8.83984375 C-32.75414062 8.54207031 -31.82859375 8.24429687 -30.875 7.9375 C-29.88628906 7.6075 -28.89757812 7.2775 -27.87890625 6.9375 C-26.92886719 6.628125 -25.97882812 6.31875 -25 6 C-23.60072341 5.4884894 -22.20438459 4.96879591 -20.8125 4.4375 C-20.17828125 4.20289063 -19.5440625 3.96828125 -18.890625 3.7265625 C-17.59777121 3.229722 -16.31648311 2.70198664 -15.046875 2.1484375 C-9.91796976 -0.01216431 -5.53736296 -0.34608518 0 0 Z " fill="#CA6526" transform="translate(45,12)"/>
</svg>
