<?xml version="1.0" encoding="UTF-8"?>
<svg version="1.1" xmlns="http://www.w3.org/2000/svg" width="70" height="70">
<path d="M0 0 C4.24323397 2.43796146 6.82848571 4.838026 8.47265625 9.57421875 C10.02146753 15.63034908 9.74781563 19.85026334 6.6875 25.3125 C3.96583535 29.53577273 1.45269292 31.66634245 -3.3125 33.3125 C-9.89822404 34.23026553 -15.20780117 33.86118969 -20.65234375 29.84765625 C-25.17007929 25.67007962 -26.54573702 21.89388481 -26.8125 15.75 C-26.57811117 10.03872556 -24.97056005 6.85951838 -20.81640625 2.87890625 C-14.67035949 -2.53145412 -7.44658936 -3.45834112 0 0 Z M-22.25 7.375 C-23.92748248 12.01274569 -23.95582654 16.44466255 -23.3125 21.3125 C-21.17603475 25.74368719 -18.93672478 28.5415203 -14.3125 30.3125 C-8.96761896 30.97448068 -4.70901661 30.98582051 0.1875 28.625 C4.39554413 24.73255918 6.29114295 21.2576676 6.80859375 15.43359375 C6.54480727 10.81307575 4.565607 7.04016432 1.17578125 3.921875 C-6.88865533 -1.41681961 -15.83263408 0.54361047 -22.25 7.375 Z " fill="#CD6C26" transform="translate(44.3125,19.6875)"/>
<path d="M0 0 C0 0.99 0 1.98 0 3 C-0.72445312 3.23074219 -1.44890625 3.46148437 -2.1953125 3.69921875 C-11.81414055 6.84004875 -11.81414055 6.84004875 -18.24609375 14.296875 C-21.3273304 21.33360921 -21.96291943 26.72675784 -19.4375 34.0625 C-17.29677918 38.99742484 -14.69314573 42.31014093 -10 45 C-7.30357885 45.97278942 -4.84146443 46.50149747 -2 47 C-2 46.34 -2 45.68 -2 45 C-1.01 45 -0.02 45 1 45 C1.625 47.875 1.625 47.875 2 51 C1.34 51.66 0.68 52.32 0 53 C-0.99 53 -1.98 53 -3 53 C-3.33 52.34 -3.66 51.68 -4 51 C-5.175625 50.608125 -6.35125 50.21625 -7.5625 49.8125 C-13.88344726 47.54286005 -18.96148032 43.21894553 -22.5 37.5 C-25.4697342 30.62412892 -25.4868911 21.93109566 -22.859375 14.984375 C-18.49383078 7.31020778 -13.47947442 3.1153452 -5.05078125 0.48046875 C-3 0 -3 0 0 0 Z " fill="#C35626" transform="translate(34,10)"/>
<path d="M0 0 C0.99 0 1.98 0 3 0 C3 0.99 3 1.98 3 3 C3.99 3.04125 4.98 3.0825 6 3.125 C11.70320316 3.95623609 15.91414873 7.56393173 19.58203125 11.84765625 C24.87667142 19.03432922 25.2288649 27.35851687 24 36 C22.57306047 39.63894268 20.70424085 42.20272334 18 45 C17.52046875 45.50917969 17.0409375 46.01835938 16.546875 46.54296875 C11.84215635 50.95041122 6.34094999 53 0 53 C0 52.01 0 51.02 0 50 C0.94359375 49.79697266 0.94359375 49.79697266 1.90625 49.58984375 C10.12315637 47.5232423 15.57891927 44.00991496 20 36.6875 C21.99668521 29.3247233 21.79225666 22.91820181 18.32421875 16.04296875 C15.10855077 11.08192346 11.29843259 8.0970535 5.5625 6.625 C4.386875 6.41875 3.21125 6.2125 2 6 C2 6.66 2 7.32 2 8 C1.01 8 0.02 8 -1 8 C-1.625 5.125 -1.625 5.125 -2 2 C-1.34 1.34 -0.68 0.68 0 0 Z " fill="#D68125" transform="translate(37,8)"/>
<path d="M0 0 C2.64 0 5.28 0 8 0 C8 2.31 8 4.62 8 7 C10.31 7 12.62 7 15 7 C15.04241723 9.33294775 15.04092937 11.66702567 15 14 C14 15 14 15 10.9375 15.0625 C9.968125 15.041875 8.99875 15.02125 8 15 C8 16.98 8 18.96 8 21 C5.36 21 2.72 21 0 21 C0 19.02 0 17.04 0 15 C-1.4540625 15.0309375 -1.4540625 15.0309375 -2.9375 15.0625 C-6 15 -6 15 -7 14 C-7.04092937 11.66702567 -7.04241723 9.33294775 -7 7 C-4.69 7 -2.38 7 0 7 C0 4.69 0 2.38 0 0 Z M2 3 C2 4.98 2 6.96 2 9 C-0.31 9 -2.62 9 -5 9 C-5 9.99 -5 10.98 -5 12 C-2.69 12 -0.38 12 2 12 C2 14.31 2 16.62 2 19 C2.99 19 3.98 19 5 19 C5 16.69 5 14.38 5 12 C7.31 12 9.62 12 12 12 C12 11.01 12 10.02 12 9 C9.69 9 7.38 9 5 9 C5 7.02 5 5.04 5 3 C4.01 3 3.02 3 2 3 Z " fill="#CD6D27" transform="translate(32,25)"/>
</svg>
