<?xml version="1.0" encoding="UTF-8"?>
<svg version="1.1" xmlns="http://www.w3.org/2000/svg" width="70" height="70">
<path d="M0 0 C7.63410048 5.21088923 7.63410048 5.21088923 8.70703125 8.8828125 C8.77148438 9.62402344 8.8359375 10.36523438 8.90234375 11.12890625 C-0.758004 20.49242768 -9.94604393 24.59410823 -23.359375 24.46875 C-32.24111862 23.66131876 -42.26902234 19.07616687 -48.09765625 12.12890625 C-48.578125 9.6640625 -48.578125 9.6640625 -48.09765625 7.12890625 C-36.16467342 -8.02005777 -15.7649504 -9.52258668 0 0 Z M-28.09765625 1.12890625 C-30.36808342 3.83877093 -31.01601401 5.58073689 -31.53515625 9.06640625 C-30.97438121 12.99183152 -29.59476676 15.0768823 -27.09765625 18.12890625 C-23.88980607 20.48132972 -21.00116373 20.59732715 -17.09765625 20.12890625 C-14.03294323 18.47867616 -11.78986718 17.07283025 -9.72265625 14.25390625 C-8.43304677 9.86923403 -8.67681841 7.04072158 -10.59765625 2.87890625 C-13.38039113 -0.18210212 -15.01832761 -1.08769971 -19.00390625 -1.81640625 C-22.65670834 -1.91181526 -25.02505267 -0.73875475 -28.09765625 1.12890625 Z M-6.09765625 2.12890625 C-6.09765625 6.74890625 -6.09765625 11.36890625 -6.09765625 16.12890625 C-1.83219814 14.42272301 0.598995 13.14911083 3.90234375 10.12890625 C3.90234375 9.46890625 3.90234375 8.80890625 3.90234375 8.12890625 C1.9202813 6.53732033 1.9202813 6.53732033 -0.53515625 5.00390625 C-1.35886719 4.46507812 -2.18257812 3.92625 -3.03125 3.37109375 C-4.83866191 2.04303786 -4.83866191 2.04303786 -6.09765625 2.12890625 Z M-39.09765625 5.00390625 C-39.81953125 5.53757812 -40.54140625 6.07125 -41.28515625 6.62109375 C-43.20842667 8.01578369 -43.20842667 8.01578369 -44.09765625 10.12890625 C-39.64265625 13.09890625 -39.64265625 13.09890625 -35.09765625 16.12890625 C-33.71539609 13.36438592 -34.00240238 11.08276995 -34.03515625 8.00390625 C-34.04417969 6.90820312 -34.05320312 5.8125 -34.0625 4.68359375 C-34.07410156 3.84054688 -34.08570313 2.9975 -34.09765625 2.12890625 C-36.03315388 2.12890625 -37.61340153 3.89601612 -39.09765625 5.00390625 Z " fill="#CD6C26" transform="translate(55.09765625,25.87109375)"/>
<path d="M0 0 C1.8125 1.125 1.8125 1.125 3 3 C3.39365568 6.14924548 3.52854531 8.11909116 1.875 10.875 C-0.88090884 12.52854531 -2.85075452 12.39365568 -6 12 C-7.875 10.875 -7.875 10.875 -9 9 C-9.4375 6 -9.4375 6 -9 3 C-6.30254095 0.00282328 -3.95012118 -0.60771095 0 0 Z M-4 4 C-4 5.32 -4 6.64 -4 8 C-3.01 7.67 -2.02 7.34 -1 7 C-1.33 6.01 -1.66 5.02 -2 4 C-2.66 4 -3.32 4 -4 4 Z " fill="#CC6C27" transform="translate(38,29)"/>
<path d="M0 0 C1.9375 0.625 1.9375 0.625 4 2 C4.75 5.125 4.75 5.125 5 8 C3.68 8 2.36 8 1 8 C-0.42944945 5.64561267 -1.08661261 4.51967567 -0.625 1.75 C-0.41875 1.1725 -0.2125 0.595 0 0 Z " fill="#D37B27" transform="translate(45,53)"/>
<path d="M0 0 C0.99 0.33 1.98 0.66 3 1 C2.125 5.75 2.125 5.75 1 8 C-0.32 8 -1.64 8 -3 8 C-2.45276317 4.62537285 -1.9451 2.91765 0 0 Z " fill="#C65D27" transform="translate(23,53)"/>
<path d="M0 0 C0.99 0 1.98 0 3 0 C2.25 5.75 2.25 5.75 0 8 C-0.99 8 -1.98 8 -3 8 C-2.25 2.25 -2.25 2.25 0 0 Z " fill="#D37B27" transform="translate(47,9)"/>
<path d="M0 0 C1.32 0 2.64 0 4 0 C5.76462683 3.08809695 6 4.23312136 6 8 C4.125 7.6875 4.125 7.6875 2 7 C0 4 0 4 0 0 Z " fill="#C65D27" transform="translate(20,9)"/>
<path d="M0 0 C1.32 0 2.64 0 4 0 C4 2.31 4 4.62 4 7 C2.68 7 1.36 7 0 7 C0 4.69 0 2.38 0 0 Z " fill="#CC6C27" transform="translate(33,7)"/>
<path d="M0 0 C1.32 0 2.64 0 4 0 C4 2.31 4 4.62 4 7 C2.68 7 1.36 7 0 7 C0 4.69 0 2.38 0 0 Z " fill="#CC6C27" transform="translate(33,56)"/>
</svg>
