<svg width="16" height="16" viewBox="0 0 16 16" fill="none" xmlns="http://www.w3.org/2000/svg">
<g id="solar:copy-outline">
<path id="Vector" fill-rule="evenodd" clip-rule="evenodd" d="M10 0.833984H7.296C6.07067 0.833984 5.1 0.833984 4.34067 0.935984C3.55933 1.04132 2.92667 1.26265 2.42733 1.76132C1.92867 2.26065 1.70733 2.89332 1.602 3.67465C1.5 4.43465 1.5 5.40465 1.5 6.62998V10.6673C1.50002 11.2629 1.71262 11.839 2.09956 12.2918C2.48649 12.7446 3.02234 13.0444 3.61067 13.1373C3.702 13.6467 3.87867 14.0813 4.232 14.4353C4.63333 14.8367 5.13867 15.0087 5.73867 15.09C6.31667 15.1673 7.052 15.1673 7.96333 15.1673H10.0367C10.948 15.1673 11.6833 15.1673 12.2613 15.09C12.8613 15.0087 13.3667 14.8367 13.768 14.4353C14.1693 14.034 14.3413 13.5287 14.4227 12.9287C14.5 12.3507 14.5 11.6153 14.5 10.704V7.29732C14.5 6.38598 14.5 5.65065 14.4227 5.07265C14.3413 4.47265 14.1693 3.96732 13.768 3.56598C13.414 3.21265 12.9793 3.03598 12.47 2.94465C12.3771 2.35633 12.0773 1.82048 11.6245 1.43354C11.1717 1.04661 10.5956 0.834 10 0.833984ZM11.42 2.84798C11.3186 2.55198 11.1272 2.29509 10.8726 2.11327C10.618 1.93144 10.3129 1.83379 10 1.83398H7.33333C6.062 1.83398 5.15933 1.83532 4.47333 1.92732C3.80333 2.01732 3.41667 2.18665 3.13467 2.46865C2.85267 2.75065 2.68333 3.13732 2.59333 3.80798C2.50133 4.49332 2.5 5.39598 2.5 6.66732V10.6673C2.49981 10.9802 2.59746 11.2853 2.77928 11.5399C2.96111 11.7945 3.218 11.9859 3.514 12.0873C3.5 11.6806 3.5 11.2207 3.5 10.704V7.29732C3.5 6.38598 3.5 5.65065 3.578 5.07265C3.658 4.47265 3.83133 3.96732 4.232 3.56598C4.63333 3.16465 5.13867 2.99265 5.73867 2.91198C6.31667 2.83398 7.052 2.83398 7.96333 2.83398H10.0367C10.5533 2.83398 11.0133 2.83398 11.42 2.84798ZM4.93867 4.27398C5.12333 4.08932 5.382 3.96932 5.872 3.90332C6.37467 3.83598 7.04267 3.83465 7.99933 3.83465H9.99933C10.956 3.83465 11.6233 3.83598 12.1273 3.90332C12.6167 3.96932 12.8753 4.08998 13.06 4.27398C13.2447 4.45865 13.3647 4.71732 13.4307 5.20732C13.498 5.70998 13.4993 6.37798 13.4993 7.33465V10.668C13.4993 11.6247 13.498 12.292 13.4307 12.796C13.3647 13.2853 13.244 13.544 13.06 13.7287C12.8753 13.9133 12.6167 14.0333 12.1267 14.0993C11.6233 14.1667 10.956 14.168 9.99933 14.168H7.99933C7.04267 14.168 6.37467 14.1667 5.87133 14.0993C5.382 14.0333 5.12333 13.9126 4.93867 13.7287C4.754 13.544 4.634 13.2853 4.568 12.7953C4.50067 12.292 4.49933 11.6247 4.49933 10.668V7.33465C4.49933 6.37798 4.50067 5.70998 4.568 5.20665C4.634 4.71732 4.75467 4.45865 4.93867 4.27398Z" fill="#A0A4AC"/>
</g>
</svg>
