<svg width="22" height="22" viewBox="0 0 22 22" fill="none" xmlns="http://www.w3.org/2000/svg">
<g id="fluent:location-28-filled">
<path id="Vector" d="M11.0006 1.76758C13.0323 1.76758 14.9808 2.57469 16.4175 4.01135C17.8542 5.44801 18.6613 7.39654 18.6613 9.42829C18.6613 12.6654 16.3866 16.1933 11.8963 20.0496C11.6466 20.2641 11.3282 20.3819 10.9991 20.3816C10.6699 20.3813 10.3518 20.2629 10.1025 20.048L9.80549 19.7903C5.51392 16.0346 3.33984 12.5931 3.33984 9.42829C3.33984 7.39654 4.14695 5.44801 5.58362 4.01135C7.02028 2.57469 8.96881 1.76758 11.0006 1.76758ZM11.0006 6.48186C10.2191 6.48186 9.46968 6.79229 8.91712 7.34485C8.36456 7.89742 8.05413 8.64685 8.05413 9.42829C8.05413 10.2097 8.36456 10.9592 8.91712 11.5117C9.46968 12.0643 10.2191 12.3747 11.0006 12.3747C11.782 12.3747 12.5314 12.0643 13.084 11.5117C13.6366 10.9592 13.947 10.2097 13.947 9.42829C13.947 8.64685 13.6366 7.89742 13.084 7.34485C12.5314 6.79229 11.782 6.48186 11.0006 6.48186Z" fill="white"/>
</g>
</svg>
