<svg width="74" height="74" viewBox="0 0 74 74" fill="none" xmlns="http://www.w3.org/2000/svg">
<g id="Group 13254">
<g id="Rectangle 1420" filter="url(#filter0_d_2003_1549)">
<rect x="4" width="66" height="66" rx="33" fill="#00A6C0"/>
</g>
<path id="Vector" d="M51.1389 19.5132C49.5578 17.924 47.6744 16.6641 45.5988 15.8067C43.5231 14.9494 41.2967 14.5118 39.0493 14.5196C29.6329 14.5196 21.9583 22.1558 21.9583 31.5251C21.9583 34.5281 22.7516 37.4453 24.2348 40.0193L21.8203 48.8395L30.8746 46.4715C33.3753 47.8271 36.1864 48.5478 39.0493 48.5478C48.4657 48.5478 56.1403 40.9116 56.1403 31.5423C56.1403 26.9949 54.3639 22.7221 51.1389 19.5132ZM39.0493 45.6649C36.4969 45.6649 33.9962 44.9785 31.8059 43.6915L31.2885 43.3827L25.9077 44.7898L27.3391 39.5732L26.9942 39.0412C25.5761 36.788 24.8231 34.1836 24.8212 31.5251C24.8212 23.7345 31.2023 17.3853 39.032 17.3853C42.8262 17.3853 46.3962 18.8611 49.0694 21.5381C50.393 22.849 51.4419 24.4083 52.1554 26.1256C52.8689 27.8429 53.2327 29.6841 53.2257 31.5423C53.2602 39.3329 46.8791 45.6649 39.0493 45.6649ZM46.8446 35.0944C46.4134 34.8885 44.3094 33.8589 43.93 33.7045C43.5333 33.5672 43.2574 33.4985 42.9642 33.9104C42.671 34.3394 41.8604 35.3003 41.619 35.5749C41.3775 35.8666 41.1188 35.9009 40.6877 35.6779C40.2565 35.4719 38.8768 35.0086 37.2557 33.5672C35.9795 32.4346 35.1344 31.0447 34.8757 30.6157C34.6343 30.1867 34.8412 29.9636 35.0654 29.7405C35.2551 29.5517 35.4966 29.2429 35.7035 29.0026C35.9105 28.7624 35.9967 28.5736 36.1347 28.2991C36.2727 28.0074 36.2037 27.7671 36.1002 27.5612C35.9967 27.3553 35.1344 25.2618 34.7895 24.4038C34.4446 23.5801 34.0824 23.683 33.8237 23.6659H32.9959C32.7027 23.6659 32.2543 23.7688 31.8576 24.1978C31.4782 24.6268 30.3744 25.6564 30.3744 27.75C30.3744 29.8435 31.9094 31.8683 32.1163 32.1429C32.3233 32.4346 35.1344 36.7246 39.4115 38.5607C40.429 39.0069 41.2223 39.2643 41.8432 39.453C42.8607 39.7791 43.792 39.7276 44.5336 39.6246C45.3614 39.5045 47.0688 38.595 47.4137 37.5998C47.7759 36.6045 47.7759 35.7637 47.6552 35.5749C47.5344 35.3861 47.2757 35.3003 46.8446 35.0944Z" fill="white"/>
</g>
<defs>
<filter id="filter0_d_2003_1549" x="0" y="0" width="74" height="74" filterUnits="userSpaceOnUse" color-interpolation-filters="sRGB">
<feFlood flood-opacity="0" result="BackgroundImageFix"/>
<feColorMatrix in="SourceAlpha" type="matrix" values="0 0 0 0 0 0 0 0 0 0 0 0 0 0 0 0 0 0 127 0" result="hardAlpha"/>
<feOffset dy="4"/>
<feGaussianBlur stdDeviation="2"/>
<feComposite in2="hardAlpha" operator="out"/>
<feColorMatrix type="matrix" values="0 0 0 0 0 0 0 0 0 0 0 0 0 0 0 0 0 0 0.25 0"/>
<feBlend mode="normal" in2="BackgroundImageFix" result="effect1_dropShadow_2003_1549"/>
<feBlend mode="normal" in="SourceGraphic" in2="effect1_dropShadow_2003_1549" result="shape"/>
</filter>
</defs>
</svg>
