<?xml version="1.0" encoding="UTF-8"?>
<svg version="1.1" xmlns="http://www.w3.org/2000/svg" width="60" height="60">
<path d="M0 0 C1.32 0.66 2.64 1.32 4 2 C2.66666667 5.33333333 1.33333333 8.66666667 0 12 C0.62648437 11.91621094 1.25296875 11.83242188 1.8984375 11.74609375 C2.71570312 11.64425781 3.53296875 11.54242188 4.375 11.4375 C5.18710937 11.33308594 5.99921875 11.22867187 6.8359375 11.12109375 C9 11 9 11 11 12 C10.9375 14.3125 10.9375 14.3125 10 17 C6.4375 18.8125 6.4375 18.8125 3 20 C4.32 20.66 5.64 21.32 7 22 C6.67 23.32 6.34 24.64 6 26 C3.03 26.495 3.03 26.495 0 27 C0 27.66 0 28.32 0 29 C0.94875 29.309375 1.8975 29.61875 2.875 29.9375 C6 31 6 31 8 32 C8.1875 34.375 8.1875 34.375 8 37 C5 39 5 39 2.5625 39 C-1.044941 37.59221815 -2.11482444 35.2816019 -4 32 C-6.86136296 32.11406002 -6.86136296 32.11406002 -10 33 C-11.35386936 34.65002828 -12.68678142 36.3174387 -14 38 C-17.25 39.3125 -17.25 39.3125 -20 40 C-20.66 38.68 -21.32 37.36 -22 36 C-21.2575 35.071875 -21.2575 35.071875 -20.5 34.125 C-18.80777227 32.16119096 -18.80777227 32.16119096 -19 30 C-22.96 30 -26.92 30 -31 30 C-31.33 28.35 -31.66 26.7 -32 25 C-25.4893617 23.08510638 -25.4893617 23.08510638 -22.125 22.5 C-21.073125 22.2525 -21.073125 22.2525 -20 22 C-19.67 21.34 -19.34 20.68 -19 20 C-22.3 19.67 -25.6 19.34 -29 19 C-29.33 17.68 -29.66 16.36 -30 15 C-28 13 -28 13 -25.8359375 12.8046875 C-24.61777344 12.83949219 -24.61777344 12.83949219 -23.375 12.875 C-22.14910156 12.90207031 -22.14910156 12.90207031 -20.8984375 12.9296875 C-19.95871094 12.96449219 -19.95871094 12.96449219 -19 13 C-19.845625 12.113125 -20.69125 11.22625 -21.5625 10.3125 C-24.02603251 7.3991652 -24.02603251 7.3991652 -23.8125 4.125 C-23.544375 3.42375 -23.27625 2.7225 -23 2 C-21.35 1.67 -19.7 1.34 -18 1 C-15 5.75 -15 5.75 -15 8 C-12.64214682 7.10664203 -12.64214682 7.10664203 -11.875 3.9375 C-11.58625 2.968125 -11.2975 1.99875 -11 1 C-9.68 1 -8.36 1 -7 1 C-6.34 2.32 -5.68 3.64 -5 5 C-3.35 3.35 -1.7 1.7 0 0 Z M-10 8 C-9 10 -9 10 -9 10 Z " fill="#CC6B25" transform="translate(39,11)"/>
<path d="M0 0 C2.125 0.375 2.125 0.375 4 1 C5.125 5.75 5.125 5.75 4 8 C2.35 8 0.7 8 -1 8 C-1.625 5.125 -1.625 5.125 -2 2 C-1.34 1.34 -0.68 0.68 0 0 Z " fill="#CF7426" transform="translate(31,45)"/>
<path d="M0 0 C0.99 0.33 1.98 0.66 3 1 C3.33 1.99 3.66 2.98 4 4 C3.34 4.66 2.68 5.32 2 6 C-0.125 5.625 -0.125 5.625 -2 5 C-2 3.68 -2 2.36 -2 1 C-1.34 0.67 -0.68 0.34 0 0 Z " fill="#B73126" transform="translate(9,17)"/>
<path d="M0 0 C1.32 0 2.64 0 4 0 C3.67 1.65 3.34 3.3 3 5 C1.68 4.67 0.36 4.34 -1 4 C-0.67 2.68 -0.34 1.36 0 0 Z " fill="#E7A220" transform="translate(48,36)"/>
<path d="M0 0 C1.98 0.495 1.98 0.495 4 1 C3.67 2.32 3.34 3.64 3 5 C1.68 4.67 0.36 4.34 -1 4 C-0.67 2.68 -0.34 1.36 0 0 Z " fill="#C75F27" transform="translate(23,8)"/>
</svg>
