<?xml version="1.0" encoding="UTF-8"?>
<svg version="1.1" xmlns="http://www.w3.org/2000/svg" width="70" height="70">
<path d="M0 0 C0.6290625 0.3609375 1.258125 0.721875 1.90625 1.09375 C1.90625 2.08375 1.90625 3.07375 1.90625 4.09375 C-0.71689702 3.58929865 -2.48980255 2.86872014 -4.84375 1.53125 C-10.01001621 -0.75382929 -14.06404287 -0.64787376 -19.34375 1.28125 C-23.32936154 3.90813033 -25.58355531 6.56316592 -27.09375 11.09375 C-27.4621931 16.71250724 -27.28565228 20.25086379 -24.09375 25.09375 C-19.63198961 29.22087836 -16.26580257 30.40954995 -10.15234375 30.30859375 C-5.61485378 29.83504167 -2.812709 27.87100298 0.21875 24.59375 C3.84791013 19.21721648 3.41894007 13.23397668 2.40625 7.03125 C2.15875 6.0721875 2.15875 6.0721875 1.90625 5.09375 C4.90625 6.09375 4.90625 6.09375 6.06640625 7.859375 C7.83791342 12.57240802 7.88934307 17.71320233 5.9609375 22.3828125 C2.59902609 28.02828638 -1.63085185 32.29015052 -8.09375 34.09375 C-14.43325583 34.71730795 -18.82862852 33.75791377 -24.09375 30.09375 C-28.80396214 25.74127549 -31.1180122 21.13206249 -31.53125 14.78125 C-31.40902106 9.54286697 -29.38416782 6.06929591 -26.09375 2.09375 C-17.65954165 -5.91874793 -9.64961398 -5.23171843 0 0 Z " fill="#CD6B26" transform="translate(47.09375,19.90625)"/>
<path d="M0 0 C2.64 0 5.28 0 8 0 C8 1.32 8 2.64 8 4 C13.96732784 6.74322214 20.89228812 7.24454318 27.23046875 5.32421875 C28.84332617 4.59860486 30.42490609 3.80430327 32 3 C32.99 3 33.98 3 35 3 C35 3.99 35 4.98 35 6 C27.00567267 9.96179053 19.30320163 11.63234239 10.49609375 9.3515625 C5.57230392 7.57230392 5.57230392 7.57230392 4 6 C3.67 6.66 3.34 7.32 3 8 C2.01 8 1.02 8 0 8 C0 5.36 0 2.72 0 0 Z " fill="#C96326" transform="translate(16,51)"/>
<path d="M0 0 C0.33 0.33 0.66 0.66 1 1 C1.33 0.34 1.66 -0.32 2 -1 C2.99 -1 3.98 -1 5 -1 C5 1.64 5 4.28 5 7 C2.36 7 -0.28 7 -3 7 C-3 5.68 -3 4.36 -3 3 C-10.11964985 -0.2610075 -17.88739359 0.04191463 -25.25 2.5 C-26.50724313 2.98149737 -27.76062885 3.47420618 -29 4 C-29.33 3.01 -29.66 2.02 -30 1 C-19.86730431 -4.02151291 -10.34755944 -4.88092427 0 0 Z " fill="#D07426" transform="translate(49,12)"/>
<path d="M0 0 C2.64 0 5.28 0 8 0 C8 2.64 8 5.28 8 8 C6.68 8 5.36 8 4 8 C1.75020412 11.60325874 1.70103193 14.68010034 1.6875 18.875 C1.67074219 20.06867187 1.65398438 21.26234375 1.63671875 22.4921875 C2.03075652 26.29698227 3.16579681 28.68004383 5 32 C5 32.66 5 33.32 5 34 C3.1875 33.9375 3.1875 33.9375 1 33 C-3.11234464 26.68461359 -2.79633228 19.30110967 -2 12 C-0.96768595 8.9298712 0.24054464 6.74914901 2 4 C1.34 3.67 0.68 3.34 0 3 C0 2.01 0 1.02 0 0 Z " fill="#BB3F27" transform="translate(11,16)"/>
<path d="M0 0 C1.8125 0.0625 1.8125 0.0625 4 1 C8.11234464 7.31538641 7.79633228 14.69889033 7 22 C5.96768595 25.0701288 4.75945536 27.25085099 3 30 C3.66 30.33 4.32 30.66 5 31 C5 31.99 5 32.98 5 34 C2.36 34 -0.28 34 -3 34 C-3 31.36 -3 28.72 -3 26 C-1.68 26.33 -0.36 26.66 1 27 C3.9874047 18.91544151 5.08082589 12.57781696 1.4375 4.5625 C0.963125 3.716875 0.48875 2.87125 0 2 C0 1.34 0 0.68 0 0 Z " fill="#E09623" transform="translate(54,20)"/>
<path d="M0 0 C0.99 0 1.98 0 3 0 C2.95359375 0.58007812 2.9071875 1.16015625 2.859375 1.7578125 C2.59699285 7.43651183 3.24108065 10.46718549 7 15 C7.66 15.66 8.32 16.32 9 17 C9 17.99 9 18.98 9 20 C6.53199953 18.84826645 4.95216435 17.95216435 3 16 C1.35008418 15.29289322 -0.31562256 14.62056011 -2 14 C-1.7834375 13.0409375 -1.7834375 13.0409375 -1.5625 12.0625 C-0.82763202 8.06155212 -0.41418889 4.04495104 0 0 Z " fill="#CD6F27" transform="translate(34,23)"/>
</svg>
