<?xml version="1.0" encoding="UTF-8"?>
<svg version="1.1" xmlns="http://www.w3.org/2000/svg" width="70" height="70">
<path d="M0 0 C1.24040039 0.42925781 1.24040039 0.42925781 2.50585938 0.8671875 C4.52808968 1.56853905 6.54578428 2.28294552 8.5625 3 C9.83658758 31.16060243 9.83658758 31.16060243 2.5625 40 C-1.79374987 44.67337151 -6.18189087 48.48931622 -12.625 49.5 C-19.5440552 48.59258292 -24.52978882 44.5022999 -28.8125 39.125 C-34.55859328 31.36273365 -34.8420552 23.80554601 -34.625 14.5 C-34.61146484 13.39140625 -34.59792969 12.2828125 -34.58398438 11.140625 C-34.54888881 8.42656768 -34.4997227 5.71354807 -34.4375 3 C-31.58746588 1.98665453 -28.73341336 0.98919371 -25.875 0 C-25.07513672 -0.28617188 -24.27527344 -0.57234375 -23.45117188 -0.8671875 C-14.72100187 -3.86038865 -8.54974366 -3.05889298 0 0 Z M-24.3125 2.375 C-24.98796875 2.59671875 -25.6634375 2.8184375 -26.359375 3.046875 C-30.11127123 4.1190098 -30.11127123 4.1190098 -32.4375 7 C-32.5524885 10.21077031 -32.33894936 13.41702712 -32.1875 16.625 C-32.16042969 17.50285156 -32.13335937 18.38070313 -32.10546875 19.28515625 C-31.65041154 29.16430139 -28.74356237 36.1789225 -21.4375 43 C-17.90816066 45.4264208 -16.21618131 46.01390502 -11.9375 45.9375 C-5.48317544 44.20866306 -1.51791663 40.68163271 2.23828125 35.30859375 C7.46811017 26.1911044 6.90640488 16.15156259 6.5625 6 C-4.52467901 1.48624728 -12.58932176 -1.74896389 -24.3125 2.375 Z " fill="#CC6925" transform="translate(48.4375,12)"/>
<path d="M0 0 C0.81082622 20.87877514 0.81082622 20.87877514 -6.4375 30.375 C-8.93855396 32.93705527 -10.68545778 34.65839958 -14 36 C-17.79025643 35.93231685 -20.25545159 35.4176735 -23.5625 33.5625 C-29.07209592 27.7703607 -33.15917262 21.01078545 -33.09765625 12.890625 C-33.09443359 12.13652344 -33.09121094 11.38242187 -33.08789062 10.60546875 C-33.07951172 9.82816406 -33.07113281 9.05085938 -33.0625 8.25 C-33.05798828 7.45722656 -33.05347656 6.66445313 -33.04882812 5.84765625 C-33.03708565 3.89840492 -33.01915146 1.94919262 -33 0 C-19.66740808 -5.61372291 -13.33259192 -5.61372291 0 0 Z M-24.8125 0 C-25.78832031 0.37125 -26.76414062 0.7425 -27.76953125 1.125 C-28.87361328 1.558125 -28.87361328 1.558125 -30 2 C-30.49734017 12.48558858 -30.62061699 20.70319516 -23.4375 28.9375 C-20.01901967 32.07788729 -20.01901967 32.07788729 -15.6875 32.9375 C-10.47185136 31.11808768 -7.21070152 27.9660226 -4.625 23.1875 C-1.87827964 16.51365054 -2.68768362 9.07049582 -3 2 C-4.725227 1.32320342 -6.45538939 0.65898 -8.1875 0 C-9.15042969 -0.37125 -10.11335938 -0.7425 -11.10546875 -1.125 C-16.33823193 -2.70683394 -19.7699583 -1.94411246 -24.8125 0 Z " fill="#CD6C26" transform="translate(52,19)"/>
<path d="M0 0 C0.66 0 1.32 0 2 0 C1.42881029 4.08545858 -0.73633276 6.49649575 -3.3125 9.625 C-4.09238281 10.58664063 -4.87226562 11.54828125 -5.67578125 12.5390625 C-7.76908007 14.75549654 -9.19916781 15.91043141 -12 17 C-13.34227818 15.73861805 -14.67358677 14.46555441 -16 13.1875 C-16.7425 12.47980469 -17.485 11.77210937 -18.25 11.04296875 C-20 9 -20 9 -20 6 C-17 6 -17 6 -15.61328125 7.3125 C-14.40885417 8.875 -13.20442708 10.4375 -12 12 C-8.11694869 10.4850876 -6.34283415 8.16857333 -3.875 4.875 C-2.62875581 3.21490868 -1.34659989 1.57977736 0 0 Z " fill="#CD6D26" transform="translate(45,27)"/>
</svg>
