<?xml version="1.0" encoding="UTF-8"?>
<svg version="1.1" xmlns="http://www.w3.org/2000/svg" width="2000" height="300">
<path d="M0 0 C136.29 0 272.58 0 413 0 C413 1.65 413 3.3 413 5 C276.71 5 140.42 5 0 5 C0 3.35 0 1.7 0 0 Z " fill="#98381C" transform="translate(64,173)"/>
<path d="M0 0 C136.29 0 272.58 0 413 0 C413 1.65 413 3.3 413 5 C276.71 5 140.42 5 0 5 C0 3.35 0 1.7 0 0 Z " fill="#A05011" transform="translate(1498,89)"/>
<path d="M0 0 C2.875 1.25 2.875 1.25 5 3 C5.33 4.32 5.66 5.64 6 7 C82.89 7 159.78 7 239 7 C239 8.98 239 10.96 239 13 C237.21064923 13.00081715 237.21064923 13.00081715 235.38514996 13.00165081 C207.08566869 13.01568657 178.78630346 13.05540099 150.48690928 13.12685562 C147.00584037 13.13562266 143.52477095 13.14417242 140.04370117 13.15258789 C139.00414763 13.15510648 139.00414763 13.15510648 137.943593 13.15767596 C126.71325572 13.18436592 115.48296947 13.19344246 104.25260373 13.19604143 C92.73429435 13.1990979 81.21615729 13.22138234 69.69791108 13.26052457 C63.22608403 13.28190467 56.75450701 13.2944294 50.28264427 13.28615379 C44.19638177 13.27864548 38.11062722 13.29430534 32.02445793 13.32806015 C29.78589119 13.33633234 27.54727429 13.335998 25.30871201 13.32659721 C22.26132781 13.31506258 19.21563277 13.33396012 16.16838074 13.36076355 C14.82743852 13.34475366 14.82743852 13.34475366 13.45940655 13.32842034 C11.19307304 13.36583055 9.19309028 13.42749992 7 14 C4.96045939 16.33268912 4.96045939 16.33268912 4 19 C0.39837617 21.47473539 -2.61229813 21.26203393 -6.8046875 20.66015625 C-10.67676641 19.49577665 -12.06486212 17.43330915 -14 14 C-14.73054117 10.90878446 -14.52154924 9.28576018 -14 6 C-9.65172447 0.62186973 -6.82892311 -0.46297784 0 0 Z " fill="#BC6410" transform="translate(201,83)"/>
<path d="M0 0 C127.71 0 255.42 0 387 0 C387 1.32 387 2.64 387 4 C259.29 4 131.58 4 0 4 C0 2.68 0 1.36 0 0 Z " fill="#A13C1E" transform="translate(1613,169)"/>
<path d="M0 0 C2.38312703 1.89428046 3.6500559 3.30011179 5 6 C75.62 6.33 146.24 6.66 219 7 C219 8.65 219 10.3 219 12 C217.89986667 12.00054477 216.79973333 12.00108953 215.66626263 12.00165081 C188.92709959 12.01603095 162.18809963 12.05898406 135.44903088 12.13209057 C122.51832877 12.16677897 109.5877337 12.19210114 96.65698242 12.19555664 C85.3896729 12.19859118 74.12255381 12.21901284 62.85531789 12.26052457 C56.88650702 12.28190257 50.9179672 12.29443051 44.94911766 12.28615379 C39.33560522 12.27864409 33.72264336 12.29431079 28.10923195 12.32806015 C26.04482267 12.33633069 23.98035902 12.33599988 21.91595459 12.32659721 C19.10498925 12.31505778 16.29585338 12.33396625 13.48503113 12.36076355 C12.66110672 12.35009029 11.83718231 12.33941703 10.98829049 12.32842034 C8.45814293 12.31675478 8.45814293 12.31675478 5 13 C2.99878576 15.34198797 2.99878576 15.34198797 2 18 C-1.42765252 20.57073939 -4.83971296 20.43037452 -9 20 C-14.68421053 16.94736842 -14.68421053 16.94736842 -16 13 C-16.43122102 5.0942813 -16.43122102 5.0942813 -14 2 C-8.98971178 -1.45948472 -5.70248017 -1.3796323 0 0 Z " fill="#FABE07" transform="translate(1781,112)"/>
<path d="M0 0 C67.32 0 134.64 0 204 0 C204 1.98 204 3.96 204 6 C136.68 6 69.36 6 0 6 C0 4.02 0 2.04 0 0 Z " fill="#921B17" transform="translate(0,137)"/>
<path d="M0 0 C67.32 0 134.64 0 204 0 C204 1.65 204 3.3 204 5 C136.68 5 69.36 5 0 5 C0 3.35 0 1.7 0 0 Z " fill="#9B1D19" transform="translate(0,200)"/>
<path d="M0 0 C17.49 0 34.98 0 53 0 C53 1.65 53 3.3 53 5 C35.51 5 18.02 5 0 5 C0 3.35 0 1.7 0 0 Z " fill="#F9B610" transform="translate(1947,101)"/>
<path d="M0 0 C2.97 0 5.94 0 9 0 C9 0.66 9 1.32 9 2 C10.32 2.33 11.64 2.66 13 3 C7.39 3 1.78 3 -4 3 C-2.68 2.67 -1.36 2.34 0 2 C0 1.34 0 0.68 0 0 Z " fill="#FFFFFF" transform="translate(1581,297)"/>
<path d="M0 0 C2.64 0 5.28 0 8 0 C8 0.66 8 1.32 8 2 C9.65 2 11.3 2 13 2 C13 2.33 13 2.66 13 3 C7.06 3 1.12 3 -5 3 C-5 2.67 -5 2.34 -5 2 C-3.35 2 -1.7 2 0 2 C0 1.34 0 0.68 0 0 Z " fill="#FFFFFF" transform="translate(1478,297)"/>
<path d="M0 0 C7.26 0 14.52 0 22 0 C22 0.33 22 0.66 22 1 C14.74 1 7.48 1 0 1 C0 0.67 0 0.34 0 0 Z " fill="#FFFFFF" transform="translate(1694,299)"/>
<path d="M0 0 C3.3 0 6.6 0 10 0 C10 0.33 10 0.66 10 1 C6.7 1 3.4 1 0 1 C0 0.67 0 0.34 0 0 Z " fill="#FFFFFF" transform="translate(1634,299)"/>
<path d="M0 0 C2.97 0 5.94 0 9 0 C9 0.33 9 0.66 9 1 C6.03 1 3.06 1 0 1 C0 0.67 0 0.34 0 0 Z " fill="#FFFFFF" transform="translate(1768,299)"/>
<path d="M0 0 C2.97 0 5.94 0 9 0 C9 0.33 9 0.66 9 1 C6.03 1 3.06 1 0 1 C0 0.67 0 0.34 0 0 Z " fill="#FFFFFF" transform="translate(1750,299)"/>
<path d="M0 0 C2.97 0 5.94 0 9 0 C9 0.33 9 0.66 9 1 C6.03 1 3.06 1 0 1 C0 0.67 0 0.34 0 0 Z " fill="#FFFFFF" transform="translate(1665,299)"/>
<path d="M0 0 C2.97 0 5.94 0 9 0 C9 0.33 9 0.66 9 1 C6.03 1 3.06 1 0 1 C0 0.67 0 0.34 0 0 Z " fill="#FFFFFF" transform="translate(1534,299)"/>
<path d="M0 0 C2.64 0 5.28 0 8 0 C8 0.33 8 0.66 8 1 C5.36 1 2.72 1 0 1 C0 0.67 0 0.34 0 0 Z " fill="#FFFFFF" transform="translate(1724,299)"/>
<path d="M0 0 C2.64 0 5.28 0 8 0 C8 0.33 8 0.66 8 1 C5.36 1 2.72 1 0 1 C0 0.67 0 0.34 0 0 Z " fill="#FFFFFF" transform="translate(1609,299)"/>
<path d="M0 0 C2.64 0 5.28 0 8 0 C8 0.33 8 0.66 8 1 C5.36 1 2.72 1 0 1 C0 0.67 0 0.34 0 0 Z " fill="#FFFFFF" transform="translate(1509,299)"/>
</svg>
