<?xml version="1.0" encoding="UTF-8"?>
<svg id="Layer_1" xmlns="http://www.w3.org/2000/svg" version="1.1" viewBox="0 0 2000 300">
  <!-- Generator: Adobe Illustrator 29.0.0, SVG Export Plug-In . SVG Version: 2.1.0 Build 186)  -->
  <defs>
    <style>
      .st0 {
        fill: #f9b610;
      }

      .st1 {
        fill: #98381c;
      }

      .st2 {
        fill: #921b17;
      }

      .st3 {
        fill: #a13c1e;
      }

      .st4 {
        fill: #a05011;
      }

      .st5 {
        fill: #fabe07;
      }

      .st6 {
        fill: #bc6410;
      }

      .st7 {
        fill: #9b1d19;
      }
    </style>
  </defs>
  <path class="st1" d="M64,173h413v5H64v-5Z"/>
  <path class="st4" d="M1498,89h413v5h-413v-5Z"/>
  <path class="st6" d="M201,83q2.88,1.25,5,3c.33,1.32.66,2.64,1,4h233v6q-1.79,0-3.61,0c-28.3.01-56.6.05-84.9.13-3.48,0-6.96.02-10.44.03q-1.04,0-2.1,0c-11.23.03-22.46.04-33.69.04-11.52,0-23.04.03-34.55.06-6.47.02-12.94.03-19.42.03-6.09,0-12.17,0-18.26.04-2.24,0-4.48,0-6.72,0-3.05-.01-6.09,0-9.14.03q-1.34-.02-2.71-.03c-2.27.04-4.27.1-6.46.67q-2.04,2.33-3,5c-3.6,2.47-6.61,2.26-10.8,1.66-3.87-1.16-5.26-3.23-7.2-6.66-.73-3.09-.52-4.71,0-8,4.35-5.38,7.17-6.46,14-6Z"/>
  <path class="st3" d="M1613,169h387v4h-387v-4Z"/>
  <path class="st5" d="M1781,112c2.38,1.89,3.65,3.3,5,6,70.62.33,141.24.66,214,1v5c-1.1,0-2.2,0-3.33,0-26.74.01-53.48.06-80.22.13-12.93.03-25.86.06-38.79.06-11.27,0-22.53.02-33.8.06-5.97.02-11.94.03-17.91.03-5.61,0-11.23,0-16.84.04-2.06,0-4.13,0-6.19,0-2.81-.01-5.62,0-8.43.03-.82-.01-1.65-.02-2.5-.03q-2.53-.01-5.99.67-2,2.34-3,5c-3.43,2.57-6.84,2.43-11,2q-5.68-3.05-7-7-.43-7.91,2-11c5.01-3.46,8.3-3.38,14-2Z"/>
  <path class="st2" d="M0,137h204v6H0v-6Z"/>
  <path class="st7" d="M0,200h204v5H0v-5Z"/>
  <path class="st0" d="M1947,101h53v5h-53v-5Z"/>
</svg>