<?xml version="1.0" encoding="UTF-8"?>
<svg version="1.1" xmlns="http://www.w3.org/2000/svg" width="70" height="70">
<path d="M0 0 C2.475 0.99 2.475 0.99 5 2 C5 2.66 5 3.32 5 4 C4.34 4 3.68 4 3 4 C6.1835623 9.57123403 10.68336086 14.58118435 16.9609375 16.64453125 C25.4089632 18.11727136 31.84536663 16.81335481 39 12 C41.20984124 9.68236162 42.58698145 7.8260371 44 5 C43.34 4.67 42.68 4.34 42 4 C42 3.34 42 2.68 42 2 C43.98 1.34 45.96 0.68 48 0 C48.66 1.98 49.32 3.96 50 6 C49.01 6.33 48.02 6.66 47 7 C45.4383896 8.79392278 45.4383896 8.79392278 44 10.9375 C42.05598404 13.7269604 40.89822675 15.06784883 38 17 C39.49853516 17.09087891 39.49853516 17.09087891 41.02734375 17.18359375 C42.31769531 17.26738281 43.60804687 17.35117187 44.9375 17.4375 C46.86916016 17.55931641 46.86916016 17.55931641 48.83984375 17.68359375 C52 18 52 18 53 19 C53 20.65 53 22.3 53 24 C33.86 24 14.72 24 -5 24 C-5 19 -5 19 -4 18 C-1.65012738 17.76472227 0.70556039 17.58613583 3.0625 17.4375 C4.35285156 17.35371094 5.64320312 17.26992188 6.97265625 17.18359375 C7.97167969 17.12300781 8.97070312 17.06242187 10 17 C9.52949219 16.61328125 9.05898438 16.2265625 8.57421875 15.828125 C5.27643465 13.06973002 2.54549248 10.4833055 0 7 C-0.66 7 -1.32 7 -2 7 C-1.125 1.125 -1.125 1.125 0 0 Z M-3 21 C-3 21.33 -3 21.66 -3 22 C14.82 22 32.64 22 51 22 C51 21.67 51 21.34 51 21 C33.18 21 15.36 21 -3 21 Z " fill="#CF7026" transform="translate(11,32)"/>
<path d="M0 0 C0.99 0 1.98 0 3 0 C3.33 1.32 3.66 2.64 4 4 C15.88 4 27.76 4 40 4 C40.495 5.485 40.495 5.485 41 7 C21.86 7 2.72 7 -17 7 C-16.67 6.01 -16.34 5.02 -16 4 C-10.39 4 -4.78 4 1 4 C0.67 2.68 0.34 1.36 0 0 Z " fill="#CE6F26" transform="translate(23,57)"/>
<path d="M0 0 C1.32 0.66 2.64 1.32 4 2 C4 2.66 4 3.32 4 4 C4.639375 3.505 5.27875 3.01 5.9375 2.5 C10.06056806 0.4805381 13.48460607 0.27530715 18 1 C21.86720247 3.00521609 24.94761566 5.11127178 27 9 C28.53314917 15.93370166 28.53314917 15.93370166 27 19 C26.01 19 25.02 19 24 19 C24.04125 17.783125 24.0825 16.56625 24.125 15.3125 C24.1124982 11.78699376 23.87008126 9.08563408 22 6 C17.81399953 4.58347923 13.35846272 4.40071138 9 5 C6.09190457 6.85716187 6.09190457 6.85716187 4 9 C3.34 9 2.68 9 2 9 C2 7.68 2 6.36 2 5 C1.01 4.34 0.02 3.68 -1 3 C-0.67 2.01 -0.34 1.02 0 0 Z " fill="#CF7226" transform="translate(21,12)"/>
<path d="M0 0 C0.66 0 1.32 0 2 0 C2.01417969 0.59167969 2.02835938 1.18335937 2.04296875 1.79296875 C2.29529749 5.97344217 2.67064619 8.49567698 5 12.0625 C9.01309344 14.65428951 12.33586871 14.79265201 17 14 C20.17442531 12.75075107 20.17442531 12.75075107 22 10 C22.99 10.33 23.98 10.66 25 11 C22.57879511 14.28592092 20.80484577 16.47667053 17 18 C12.84405326 18.57246494 9.11835247 18.42248871 5.1875 16.9375 C0.91615955 13.15431275 -0.86362517 9.69104784 -1.3125 4.125 C-1 1 -1 1 0 0 Z " fill="#CC6B26" transform="translate(22,22)"/>
<path d="M0 0 C0.66 0 1.32 0 2 0 C2 2.31 2 4.62 2 7 C2.66 7 3.32 7 4 7 C4 4.69 4 2.38 4 0 C5.65 0 7.3 0 9 0 C9.33 0.66 9.66 1.32 10 2 C11.32 1.34 12.64 0.68 14 0 C13.25 6.625 13.25 6.625 11 10 C10.34 10 9.68 10 9 10 C8.34 9.01 7.68 8.02 7 7 C6.5875 7.515625 6.175 8.03125 5.75 8.5625 C5.1725 9.036875 4.595 9.51125 4 10 C2.68 9.67 1.36 9.34 0 9 C0 6.03 0 3.06 0 0 Z M6 2 C7 4 7 4 7 4 Z " fill="#CE7027" transform="translate(28,22)"/>
<path d="M0 0 C0.66 0.33 1.32 0.66 2 1 C1.34 2.32 0.68 3.64 0 5 C-0.99 5 -1.98 5 -3 5 C-3 4.01 -3 3.02 -3 2 C-2.01 1.34 -1.02 0.68 0 0 Z " fill="#C65E27" transform="translate(23,36)"/>
<path d="M0 0 C1.65 0 3.3 0 5 0 C5 0.99 5 1.98 5 3 C3.35 3 1.7 3 0 3 C0 2.01 0 1.02 0 0 Z " fill="#DA8A25" transform="translate(50,25)"/>
<path d="M0 0 C1.65 0 3.3 0 5 0 C5 0.99 5 1.98 5 3 C3.35 3 1.7 3 0 3 C0 2.01 0 1.02 0 0 Z " fill="#C45627" transform="translate(15,25)"/>
<path d="M0 0 C0.99 0 1.98 0 3 0 C3 1.65 3 3.3 3 5 C2.01 5 1.02 5 0 5 C0 3.35 0 1.7 0 0 Z " fill="#CE7027" transform="translate(33,7)"/>
<path d="M0 0 C0.66 0 1.32 0 2 0 C2 1.65 2 3.3 2 5 C1.01 5 0.02 5 -1 5 C-0.67 3.35 -0.34 1.7 0 0 Z " fill="#CE7027" transform="translate(34,41)"/>
<path d="M0 0 C1.98 0.99 1.98 0.99 4 2 C4 2.99 4 3.98 4 5 C2.68 4.34 1.36 3.68 0 3 C0 2.01 0 1.02 0 0 Z " fill="#D68226" transform="translate(45,36)"/>
<path d="M0 0 C0.66 0 1.32 0 2 0 C1.6875 1.9375 1.6875 1.9375 1 4 C0.01 4.33 -0.98 4.66 -2 5 C-1.125 1.125 -1.125 1.125 0 0 Z " fill="#D68226" transform="translate(47,12)"/>
<path d="M0 0 C0.99 0 1.98 0 3 0 C3 1.32 3 2.64 3 4 C2.01 3.67 1.02 3.34 0 3 C0 2.01 0 1.02 0 0 Z " fill="#DE9123" transform="translate(56,57)"/>
<path d="M0 0 C0.99 0 1.98 0 3 0 C3 1.32 3 2.64 3 4 C2.01 3.67 1.02 3.34 0 3 C0 2.01 0 1.02 0 0 Z " fill="#D47E26" transform="translate(43,57)"/>
<path d="M0 0 C0.66 0 1.32 0 2 0 C2.33 1.32 2.66 2.64 3 4 C2.01 4 1.02 4 0 4 C-0.33 3.01 -0.66 2.02 -1 1 C-0.67 0.67 -0.34 0.34 0 0 Z " fill="#D07527" transform="translate(37,57)"/>
<path d="M0 0 C0.99 0 1.98 0 3 0 C3 1.32 3 2.64 3 4 C2.01 3.67 1.02 3.34 0 3 C0 2.01 0 1.02 0 0 Z " fill="#CC6B27" transform="translate(30,57)"/>
<path d="M0 0 C0.99 0 1.98 0 3 0 C3.33 0.99 3.66 1.98 4 3 C3.01 3.33 2.02 3.66 1 4 C0.67 2.68 0.34 1.36 0 0 Z " fill="#C04D26" transform="translate(10,57)"/>
<path d="M0 0 C0.66 0 1.32 0 2 0 C2.33 1.32 2.66 2.64 3 4 C2.01 4 1.02 4 0 4 C0 2.68 0 1.36 0 0 Z " fill="#D98826" transform="translate(50,57)"/>
<path d="M0 0 C0.99 0.33 1.98 0.66 3 1 C3 1.99 3 2.98 3 4 C2.01 3.67 1.02 3.34 0 3 C0 2.01 0 1.02 0 0 Z " fill="#C45827" transform="translate(17,57)"/>
</svg>
