<?xml version="1.0" encoding="UTF-8"?>
<svg version="1.1" xmlns="http://www.w3.org/2000/svg" width="60" height="60">
<path d="M0 0 C0.7734375 0.495 0.7734375 0.495 1.5625 1 C4.11036181 2.23309875 4.11036181 2.23309875 7.5625 1.9375 C11 2 11 2 12.9375 3.375 C14 5 14 5 14 7 C15.32 7 16.64 7 18 7 C18 7.99 18 8.98 18 10 C16.68 10.33 15.36 10.66 14 11 C14.99 12.485 14.99 12.485 16 14 C16.515625 13.319375 17.03125 12.63875 17.5625 11.9375 C20 10 20 10 23.5625 10.0625 C28.26382979 11.34468085 28.26382979 11.34468085 30 14 C30 14.99 30 15.98 30 17 C31.32 17.33 32.64 17.66 34 18 C34.75 21.25 34.75 21.25 35 25 C33.125 27.25 33.125 27.25 31 29 C30.67 29.99 30.34 30.98 30 32 C29.34 32 28.68 32 28 32 C28 32.66 28 33.32 28 34 C26.68 34 25.36 34 24 34 C24 33.34 24 32.68 24 32 C23.34 32 22.68 32 22 32 C22 32.66 22 33.32 22 34 C20.68 34 19.36 34 18 34 C18 33.34 18 32.68 18 32 C17.34 32 16.68 32 16 32 C16 32.66 16 33.32 16 34 C14.68 34 13.36 34 12 34 C13.875 30.125 13.875 30.125 15 29 C13.7315625 27.9171875 13.7315625 27.9171875 12.4375 26.8125 C10 24 10 24 10.0625 21.375 C11 19 11 19 13 16 C12.34 15.34 11.68 14.68 11 14 C10.01 14.495 10.01 14.495 9 15 C9 16.32 9 17.64 9 19 C8.01 19 7.02 19 6 19 C6 17.68 6 16.36 6 15 C2.94729537 14.84188612 2.94729537 14.84188612 0 16 C0.2475 14.9790625 0.2475 14.9790625 0.5 13.9375 C1.30431092 9.21217334 1.47312965 4.60353017 0 0 Z M7 4 C6.01 4.66 5.02 5.32 4 6 C4.33 7.65 4.66 9.3 5 11 C6.89179203 11.6814823 6.89179203 11.6814823 9 12 C9.66 11.34 10.32 10.68 11 10 C10.67958603 7.39719432 10.67958603 7.39719432 10 5 C9.01 4.67 8.02 4.34 7 4 Z M19.25 14.5 C18.8375 14.995 18.425 15.49 18 16 C19.32 18.31 20.64 20.62 22 23 C21.01 23 20.02 23 19 23 C18.67 22.01 18.34 21.02 18 20 C16.35 20.33 14.7 20.66 13 21 C13.33 22.32 13.66 23.64 14 25 C19.94 25 25.88 25 32 25 C32 23.35 32 21.7 32 20 C28.99740483 19.66781808 28.99740483 19.66781808 27.3125 21.5 C26.879375 21.995 26.44625 22.49 26 23 C26.32552083 20.98177083 26.65104167 18.96354167 26.9765625 16.9453125 C26.98429687 16.30335937 26.99203125 15.66140625 27 15 C26.34 14.34 25.68 13.68 25 13 C21.12202338 12.56613908 21.12202338 12.56613908 19.25 14.5 Z M18 28 C18.99 29.485 18.99 29.485 20 31 C20.66 30.01 21.32 29.02 22 28 C20.68 28 19.36 28 18 28 Z M24 28 C24.99 29.485 24.99 29.485 26 31 C26.66 30.01 27.32 29.02 28 28 C26.68 28 25.36 28 24 28 Z " fill="#C86126" transform="translate(8,22)"/>
<path d="M0 0 C0 2.31 0 4.62 0 7 C0.66 6.67 1.32 6.34 2 6 C2 4.02 2 2.04 2 0 C3.65 0 5.3 0 7 0 C7.33 0.99 7.66 1.98 8 3 C8.99 3 9.98 3 11 3 C10.67 3.99 10.34 4.98 10 6 C8.34795544 6.70211894 6.68076231 7.36971413 5 8 C4.67 8.66 4.34 9.32 4 10 C4.7425 9.690625 5.485 9.38125 6.25 9.0625 C9 8 9 8 13 7 C13 9.97 13 12.94 13 16 C9.8078874 15.20197185 7.01844907 14.25768711 4 13 C6.12780579 15.34058637 8.11562221 16.70700306 11 18 C11 18.66 11 19.32 11 20 C10.01 20 9.02 20 8 20 C8 20.66 8 21.32 8 22 C6.02 22.33 4.04 22.66 2 23 C2.020625 22.05125 2.04125 21.1025 2.0625 20.125 C2.22551826 17.09333717 2.22551826 17.09333717 1 15 C0.40267181 17.76264289 0 20.16032769 0 23 C-1.98 22.67 -3.96 22.34 -6 22 C-6 21.34 -6 20.68 -6 20 C-6.99 20 -7.98 20 -9 20 C-9 19.01 -9 18.02 -9 17 C-7.02 16.67 -5.04 16.34 -3 16 C-3 15.34 -3 14.68 -3 14 C-3.86625 14.2165625 -3.86625 14.2165625 -4.75 14.4375 C-6.83333333 14.95833333 -8.91666667 15.47916667 -11 16 C-12.125 10.375 -12.125 10.375 -11 7 C-10.13375 7.495 -10.13375 7.495 -9.25 8 C-6.80116138 9.27075898 -6.80116138 9.27075898 -3 9 C-4.98 8.01 -6.96 7.02 -9 6 C-9 3 -9 3 -7.875 1.3125 C-5.23540902 -0.53521368 -3.14195927 -0.20946395 0 0 Z " fill="#CD6D26" transform="translate(30,4)"/>
<path d="M0 0 C1.66611905 -0.042721 3.33382885 -0.04063832 5 0 C6 1 6 1 6.25 3.9375 C6.1675 4.948125 6.085 5.95875 6 7 C5.01 7.66 4.02 8.32 3 9 C3.20625 9.598125 3.4125 10.19625 3.625 10.8125 C4 13 4 13 2 16 C-1.125 16.1875 -1.125 16.1875 -4 16 C-4 15.01 -4 14.02 -4 13 C-2.68 12.67 -1.36 12.34 0 12 C-3.63 11.67 -7.26 11.34 -11 11 C-11 10.34 -11 9.68 -11 9 C-11.66 8.67 -12.32 8.34 -13 8 C-13 7.01 -13 6.02 -13 5 C-5.08 4.505 -5.08 4.505 3 4 C2.01 3.34 1.02 2.68 0 2 C0 1.34 0 0.68 0 0 Z " fill="#DE9223" transform="translate(50,23)"/>
<path d="M0 0 C0.99 0 1.98 0 3 0 C3 1.32 3 2.64 3 4 C2.01 4 1.02 4 0 4 C0 2.68 0 1.36 0 0 Z " fill="#BF4A26" transform="translate(14,19)"/>
<path d="M0 0 C0.99 0 1.98 0 3 0 C3 0.99 3 1.98 3 3 C2.01 3 1.02 3 0 3 C0 2.01 0 1.02 0 0 Z " fill="#B73126" transform="translate(5,29)"/>
<path d="M0 0 C0.99 0 1.98 0 3 0 C3 0.99 3 1.98 3 3 C2.01 3 1.02 3 0 3 C0 2.01 0 1.02 0 0 Z " fill="#D07426" transform="translate(33,28)"/>
</svg>
