<?xml version="1.0" standalone="no"?>
<!DOCTYPE svg PUBLIC "-//W3C//DTD SVG 20010904//EN"
 "http://www.w3.org/TR/2001/REC-SVG-20010904/DTD/svg10.dtd">
<svg version="1.0" xmlns="http://www.w3.org/2000/svg"
 width="512.000000pt" height="512.000000pt" viewBox="0 0 512.000000 512.000000"
 preserveAspectRatio="xMidYMid meet">
<metadata>
Created by potrace 1.14, written by Peter Selinger 2001-2017
</metadata>
<g transform="translate(0.000000,512.000000) scale(0.100000,-0.100000)"
fill="#000000" stroke="none">
<path d="M2305 3590 c3 -5 -4 -9 -17 -9 -13 0 -43 -2 -68 -6 -25 -4 -54 -7
-65 -9 -11 -1 -26 -5 -32 -9 -7 -5 -13 -5 -13 0 0 4 -5 1 -10 -7 -5 -8 -10
-10 -10 -4 0 8 -11 8 -39 -2 -22 -7 -50 -15 -63 -18 -12 -2 -63 -18 -113 -36
-49 -17 -96 -32 -102 -32 -7 -1 -13 -5 -13 -9 0 -6 -50 -23 -59 -19 -2 1 -7
-4 -12 -11 -4 -7 -13 -14 -21 -15 -7 -1 -34 -13 -59 -26 l-46 -24 3 -88 c1
-49 6 -92 11 -95 4 -3 9 -13 9 -21 4 -38 14 -69 33 -103 11 -20 18 -37 15 -37
-3 0 1 -6 8 -14 7 -7 27 -31 44 -52 18 -22 45 -53 60 -70 52 -55 119 -185 110
-211 -3 -8 -2 -12 3 -9 4 3 9 -9 10 -27 1 -18 3 -37 3 -44 2 -13 23 -7 60 19
14 10 31 18 37 18 6 0 11 4 11 10 0 5 3 9 8 8 12 -3 52 13 52 22 0 4 9 6 20 3
11 -3 20 0 20 6 0 6 3 10 8 9 4 -1 20 4 35 10 16 7 35 12 43 12 8 0 14 5 14
11 0 5 5 7 10 4 6 -4 18 -1 27 7 14 11 16 11 8 -2 -7 -12 -6 -13 6 -4 8 7 34
15 59 18 25 4 59 8 75 11 17 2 56 5 88 7 47 2 61 7 70 23 6 11 11 23 12 27 0
3 3 9 7 13 4 4 4 13 1 21 -3 8 -1 14 4 14 5 0 9 10 8 23 -1 12 2 32 6 45 5 12
5 22 0 22 -12 0 -9 33 4 42 6 5 6 8 -2 8 -6 0 -10 11 -8 25 1 14 -2 25 -7 25
-5 0 -6 5 -3 10 4 6 1 27 -6 48 -7 20 -13 48 -14 62 -1 14 -6 24 -11 23 -14
-2 -8 200 6 227 10 18 10 21 -2 14 -10 -6 -11 -5 -1 8 7 8 10 18 6 21 -3 4 -2
7 3 7 5 0 10 10 11 22 1 11 8 25 15 29 7 5 9 9 4 9 -5 0 -3 7 4 15 7 8 10 15
6 15 -4 0 1 11 10 25 l17 25 -122 -2 c-66 -2 -121 -6 -121 -10 0 -4 -12 -3
-26 2 -16 7 -23 7 -19 0z"/>
<path d="M2675 3590 c3 -5 2 -10 -3 -10 -10 0 -55 -96 -55 -117 0 -7 -5 -13
-10 -13 -5 0 -7 -7 -4 -15 4 -8 2 -17 -3 -20 -5 -3 -8 -21 -6 -40 2 -26 -2
-35 -13 -35 -10 0 -12 -3 -6 -8 6 -4 10 -23 10 -42 -1 -19 3 -41 8 -47 6 -9 5
-13 -2 -13 -8 0 -7 -11 3 -35 11 -26 12 -35 3 -35 -8 0 -8 -3 1 -9 8 -5 15
-20 15 -35 1 -14 4 -26 7 -26 3 0 7 -12 8 -27 4 -44 8 -62 14 -68 3 -4 2 -20
-2 -36 -6 -19 -5 -29 2 -29 7 0 7 -4 1 -12 -6 -7 -9 -28 -8 -46 1 -21 -4 -36
-14 -42 -12 -7 -13 -9 -2 -10 11 0 11 -3 1 -15 -6 -8 -9 -19 -5 -25 3 -5 1
-10 -4 -10 -6 0 -11 -5 -11 -11 0 -6 6 -9 14 -6 8 3 17 3 21 -1 3 -3 22 -5 42
-3 27 2 33 0 27 -11 -6 -10 -5 -11 8 -1 8 7 18 10 21 6 7 -7 50 -15 80 -14 9
0 17 -4 17 -8 0 -5 11 -9 25 -10 47 -3 55 -4 55 -11 0 -4 7 -7 15 -8 8 -1 22
-3 30 -4 8 -1 15 -5 15 -10 0 -4 3 -7 8 -6 4 2 48 -14 99 -35 69 -29 96 -36
105 -28 7 6 22 19 33 29 12 9 32 33 45 52 13 19 29 38 35 42 5 4 6 8 2 8 -5 0
1 14 13 30 12 17 19 30 15 30 -3 0 2 14 10 30 9 17 13 35 10 40 -3 6 -2 10 4
10 5 0 8 8 6 18 -1 9 2 22 7 29 5 7 7 17 3 23 -3 5 -1 10 6 10 6 0 9 8 6 20
-3 10 -1 20 5 22 5 2 10 10 12 18 5 25 29 70 38 70 4 0 8 7 8 15 0 8 5 15 12
15 6 0 8 3 5 6 -10 10 104 114 116 107 6 -3 7 -1 3 6 -5 8 3 16 23 24 17 6 30
15 28 20 -1 5 -27 22 -57 39 -30 16 -60 34 -67 40 -7 5 -16 7 -22 4 -5 -3 -11
1 -15 9 -3 8 -14 15 -24 15 -11 0 -25 6 -32 14 -6 8 -18 12 -26 9 -8 -3 -14 0
-14 7 0 6 -4 8 -10 5 -5 -3 -10 -1 -10 5 0 6 -4 8 -10 5 -5 -3 -10 -1 -10 5 0
6 -4 8 -10 5 -5 -3 -10 -2 -10 4 0 6 -7 8 -16 4 -9 -3 -19 -1 -23 6 -4 6 -17
13 -29 16 -12 2 -27 7 -32 10 -11 7 -38 14 -82 22 -16 3 -28 8 -28 12 0 4 -11
8 -26 9 -14 1 -33 6 -42 10 -9 5 -27 7 -39 6 -13 0 -23 2 -23 7 0 4 -9 6 -20
4 -11 -2 -20 0 -20 4 0 4 -12 8 -27 8 -24 1 -66 7 -123 16 -8 1 -21 7 -29 11
-9 6 -12 5 -8 -1 4 -6 -5 -10 -22 -9 -16 1 -27 4 -24 9 2 4 -3 7 -12 7 -9 0
-13 -4 -10 -10z"/>
<path d="M1436 3274 c-9 -8 -16 -13 -16 -9 0 3 -10 -3 -22 -15 -12 -11 -26
-20 -31 -20 -4 0 -15 -6 -22 -12 -33 -29 -45 -38 -53 -38 -5 0 -17 -9 -27 -20
-10 -11 -22 -17 -28 -13 -5 3 -8 2 -5 -3 3 -5 0 -15 -8 -22 -8 -7 -14 -10 -14
-6 0 4 -9 -1 -19 -12 -10 -10 -38 -35 -62 -54 -23 -19 -56 -48 -72 -65 -16
-16 -35 -28 -41 -27 -6 2 -8 0 -4 -3 4 -4 -13 -28 -37 -52 -25 -25 -45 -47
-45 -50 0 -8 -30 -35 -30 -26 0 4 -6 -2 -13 -14 -6 -12 -39 -57 -73 -100 -33
-43 -63 -86 -67 -95 -3 -10 -11 -18 -17 -18 -6 0 -9 -4 -6 -9 3 -5 -4 -20 -17
-33 -25 -29 -32 -48 -16 -48 5 0 8 -4 5 -9 -3 -4 2 -18 12 -29 9 -11 24 -30
32 -42 24 -35 69 -80 80 -80 6 0 10 -4 10 -10 0 -5 7 -10 15 -10 7 0 18 -6 22
-13 4 -7 27 -21 50 -32 22 -11 39 -24 36 -29 -3 -5 2 -4 12 2 14 7 22 6 32 -3
7 -8 22 -12 33 -10 11 2 20 0 20 -4 0 -4 6 -8 13 -9 31 -2 73 -14 86 -25 8 -7
16 -11 17 -10 9 4 44 -11 44 -19 0 -5 5 -6 10 -3 6 3 13 0 16 -8 3 -9 16 -18
30 -21 13 -4 24 -10 24 -15 0 -5 16 -25 35 -45 l35 -36 6 25 c3 14 10 25 15
25 5 0 9 5 9 11 0 6 9 23 20 39 11 15 17 30 15 34 -3 3 -2 4 2 1 3 -3 18 12
31 33 14 20 28 39 32 42 4 3 28 29 53 58 26 29 47 49 47 45 0 -4 5 0 11 10 6
9 15 14 21 11 7 -5 8 -2 4 5 -5 8 -1 14 12 18 11 3 23 11 26 19 3 8 13 14 21
14 9 0 14 4 11 8 -3 4 12 17 32 28 47 25 86 61 74 68 -5 3 -8 19 -7 36 1 16
-1 30 -5 30 -5 0 -7 13 -6 29 1 17 -2 28 -6 25 -7 -5 -12 18 -9 39 0 4 -6 7
-14 7 -9 0 -12 6 -9 15 4 8 1 15 -5 15 -6 0 -11 7 -11 15 0 8 -4 15 -9 15 -5
0 -12 8 -15 18 -3 9 -27 40 -54 68 -65 70 -92 106 -86 116 3 4 1 8 -4 8 -5 0
-15 15 -22 33 -7 17 -15 41 -20 52 -22 59 -28 85 -18 79 7 -4 7 0 1 12 -6 11
-9 45 -9 76 1 53 -1 58 -21 58 -12 0 -29 -7 -37 -16z"/>
<path d="M3646 3208 c-26 -16 -59 -44 -74 -60 -15 -17 -35 -38 -44 -46 -10 -9
-18 -22 -18 -30 0 -7 -7 -15 -16 -19 -8 -3 -13 -12 -10 -19 3 -8 1 -14 -4 -14
-6 0 -10 -7 -10 -15 0 -8 -5 -15 -11 -15 -5 0 -8 -4 -5 -8 3 -5 -1 -20 -9 -34
-7 -15 -16 -46 -19 -70 -3 -24 -11 -45 -16 -46 -6 -2 -8 -8 -5 -12 3 -5 2 -17
-4 -27 -5 -10 -19 -42 -32 -70 -12 -29 -27 -53 -32 -53 -6 0 -8 -3 -4 -6 8 -8
-65 -84 -81 -84 -20 0 -9 -24 18 -38 66 -34 160 -102 160 -115 0 -6 3 -7 7 -4
3 4 12 -2 20 -13 8 -11 18 -20 23 -20 10 0 169 -157 170 -168 0 -4 9 -16 19
-27 9 -12 20 -29 24 -38 3 -9 11 -17 17 -17 6 0 8 -4 5 -10 -3 -5 -1 -10 4
-10 6 0 11 -6 11 -14 0 -20 30 -29 48 -14 12 10 14 10 8 1 -4 -7 -2 -13 3 -13
6 0 11 5 11 10 0 6 9 10 19 10 11 0 23 5 26 10 4 6 11 8 16 5 5 -4 12 1 15 9
3 9 12 16 19 16 14 0 86 70 195 188 41 45 81 77 108 88 23 10 42 22 42 26 0 4
7 5 15 2 8 -4 15 -1 15 6 0 8 11 11 31 8 18 -3 33 0 35 6 3 7 17 11 32 10 38
-2 44 4 27 30 -8 12 -12 26 -8 29 3 4 -1 7 -10 7 -10 0 -14 5 -11 15 4 8 2 15
-3 15 -4 0 -19 18 -33 40 -14 22 -28 40 -33 40 -4 0 -5 5 -2 10 3 6 1 10 -5
10 -6 0 -9 4 -6 8 3 5 -3 15 -12 24 -9 8 -26 28 -37 43 -11 16 -29 37 -39 47
-11 10 -17 18 -13 18 4 0 -8 15 -26 34 -17 18 -65 68 -104 110 -40 42 -73 75
-73 72 0 -3 -21 15 -46 40 -26 24 -51 44 -56 44 -5 0 -6 5 -2 12 4 6 3 8 -3 5
-6 -4 -27 8 -46 27 -20 19 -39 31 -42 28 -3 -3 -12 3 -19 14 -8 10 -20 19 -28
19 -7 1 -12 5 -11 11 4 20 -37 12 -81 -18z"/>
<path d="M2440 2670 c0 -3 -15 -5 -33 -6 -51 -2 -102 -10 -115 -18 -7 -4 -12
-5 -12 -2 0 3 -18 -1 -40 -9 -22 -8 -40 -12 -40 -8 0 3 -6 0 -14 -6 -8 -7 -22
-13 -32 -15 -11 -3 -32 -10 -49 -17 -16 -7 -33 -12 -37 -11 -5 1 -8 -2 -8 -8
0 -5 -7 -7 -15 -4 -8 4 -15 2 -15 -4 0 -9 -20 -18 -44 -20 -5 0 -12 -5 -16
-12 -4 -6 -16 -12 -28 -13 -11 0 -18 -5 -16 -9 3 -4 -6 -12 -19 -17 -25 -10
-109 -67 -172 -117 -72 -57 -197 -189 -187 -198 3 -3 1 -6 -4 -6 -5 0 -20 -18
-34 -39 -13 -22 -28 -37 -32 -35 -5 3 -7 2 -6 -3 4 -14 -13 -53 -23 -53 -5 0
-8 -3 -7 -7 1 -5 -11 -35 -26 -68 -16 -33 -29 -67 -29 -75 0 -8 -3 -19 -7 -25
-4 -5 -11 -25 -15 -42 l-7 -33 1189 3 1188 2 -3 25 c-1 14 -6 34 -11 45 -15
37 -33 90 -34 103 0 6 -4 12 -9 12 -4 0 -8 7 -8 16 0 8 -7 22 -15 31 -8 8 -13
18 -10 23 3 4 -2 11 -11 14 -9 4 -14 9 -11 12 5 5 -10 27 -40 59 -7 7 -10 15
-7 17 7 7 -181 198 -195 198 -7 0 -9 5 -6 10 3 6 -1 10 -9 10 -8 0 -21 9 -29
20 -8 11 -17 17 -20 13 -4 -3 -7 -1 -7 5 0 6 -9 14 -20 17 -11 4 -17 11 -14
17 5 7 2 8 -6 3 -7 -4 -15 -4 -19 1 -7 11 -52 40 -66 44 -5 1 -21 10 -35 20
-14 9 -35 21 -47 24 -13 4 -23 11 -23 16 0 5 -7 7 -15 4 -8 -4 -15 -1 -15 5 0
6 -6 11 -14 11 -7 0 -31 8 -52 17 -22 9 -41 17 -44 18 -52 11 -108 30 -104 36
2 4 -5 5 -16 2 -11 -3 -27 0 -35 7 -12 10 -15 10 -15 0 0 -9 -4 -9 -12 -2 -23
18 -318 39 -318 22z"/>
<path d="M636 2423 c-3 -10 -5 -22 -5 -27 0 -5 -3 -12 -8 -15 -15 -10 -72
-128 -66 -135 4 -3 1 -6 -6 -6 -7 0 -9 -4 -6 -10 3 -5 2 -10 -4 -10 -6 0 -8
-7 -5 -15 4 -8 2 -15 -4 -15 -8 0 -13 -11 -27 -62 -2 -5 -4 -11 -5 -15 -1 -5
-2 -11 -1 -15 0 -5 -4 -8 -11 -8 -6 0 -9 -3 -5 -6 3 -4 1 -21 -6 -38 -7 -17
-13 -40 -12 -51 0 -11 -4 -23 -9 -26 -4 -4 -9 -26 -11 -49 -1 -23 -9 -46 -16
-51 -10 -6 -10 -9 -2 -9 9 0 10 -7 3 -26 -6 -14 -10 -29 -10 -35 0 -5 167 -8
418 -6 269 1 417 6 417 12 0 6 4 16 9 23 4 7 5 16 2 19 -3 3 -1 12 5 20 6 7 9
13 5 13 -4 0 3 18 14 40 11 21 20 48 20 59 0 21 -51 81 -69 81 -6 0 -11 7 -11
16 0 8 -4 13 -9 9 -5 -3 -16 0 -23 7 -21 20 -56 38 -73 38 -8 0 -15 4 -15 8 0
5 -6 9 -12 10 -7 0 -24 3 -38 7 -14 4 -36 9 -50 12 -14 2 -32 7 -40 10 -8 3
-21 7 -28 9 -42 8 -151 75 -165 100 -5 8 -12 12 -18 9 -5 -4 -9 -2 -9 3 0 5
-18 28 -39 52 -22 25 -38 47 -37 50 2 3 -5 13 -14 23 -18 18 -18 18 -24 0z"/>
<path d="M4389 2409 c-7 -4 -21 -6 -31 -4 -10 2 -18 -1 -18 -7 0 -6 -9 -8 -20
-5 -11 3 -20 1 -20 -5 0 -6 -6 -8 -14 -5 -8 3 -17 -1 -20 -10 -4 -9 -9 -13
-13 -9 -3 3 -15 -1 -25 -11 -10 -9 -18 -13 -18 -10 0 17 -100 -79 -155 -148
-22 -27 -48 -56 -59 -64 -10 -8 -26 -22 -34 -32 -9 -10 -19 -16 -24 -13 -4 3
-8 1 -8 -3 0 -11 -60 -47 -60 -36 0 4 -4 3 -8 -4 -4 -7 -23 -15 -42 -18 -19
-3 -38 -10 -43 -15 -4 -6 -4 -8 -1 -5 14 10 69 -136 57 -149 -4 -3 -2 -6 4 -6
6 0 10 -8 10 -17 0 -10 1 -24 2 -30 1 -10 86 -13 389 -13 213 0 392 4 397 8
11 8 16 42 6 42 -7 0 -10 13 -14 65 -1 17 -5 32 -9 35 -4 3 -8 20 -10 38 -1
18 -5 32 -8 32 -4 0 -7 6 -8 13 -1 19 -9 48 -26 96 -8 25 -13 48 -10 53 3 4
-2 11 -10 14 -9 3 -14 9 -11 13 2 4 -2 19 -10 34 -8 15 -11 27 -8 27 3 0 -2
11 -11 25 -9 14 -14 25 -12 25 3 0 -6 22 -19 49 -25 49 -57 68 -86 50z"/>
</g>
</svg>
