<?xml version="1.0" standalone="no"?>
<!DOCTYPE svg PUBLIC "-//W3C//DTD SVG 20010904//EN"
 "http://www.w3.org/TR/2001/REC-SVG-20010904/DTD/svg10.dtd">
<svg version="1.0" xmlns="http://www.w3.org/2000/svg"
 width="86.000000pt" height="86.000000pt" viewBox="0 0 86.000000 86.000000"
 preserveAspectRatio="xMidYMid meet">
<metadata>
Created by potrace 1.14, written by Peter Selinger 2001-2017
</metadata>
<g transform="translate(0.000000,86.000000) scale(0.100000,-0.100000)"
fill="#000000" stroke="none">
<path d="M470 691 c-63 -20 -132 -76 -162 -134 -26 -51 -19 -63 33 -62 44 1
63 19 38 37 -11 8 -11 9 2 5 10 -3 27 6 43 22 l27 28 -22 27 c-12 15 -19 29
-16 32 3 3 13 -9 23 -26 16 -26 23 -30 49 -25 26 5 24 3 -12 -14 -41 -19 -82
-65 -69 -78 9 -9 256 -11 262 -2 7 12 -37 59 -74 79 -30 16 -32 19 -11 14 22
-5 29 0 48 31 11 20 21 38 21 39 0 5 -50 23 -82 30 -24 6 -27 3 -31 -26 l-4
-33 -1 33 c-2 34 -12 38 -62 23z m80 -92 c0 -3 -6 -6 -14 -6 -8 0 -11 8 -8 20
4 14 7 16 13 5 5 -7 9 -16 9 -19z m-196 -58 c-2 -3 -12 3 -22 13 -16 17 -16
18 5 5 12 -7 20 -15 17 -18z"/>
<path d="M637 623 l-24 -38 28 -27 c35 -34 36 -34 68 -6 21 19 20 17 -3 -9
-16 -18 -27 -36 -23 -39 12 -12 79 -11 84 2 9 23 -42 106 -89 142 -15 12 -20
9 -41 -25z"/>
<path d="M78 543 c-3 -7 -2 -192 1 -230 1 -7 17 -11 44 -10 45 2 54 20 12 25
l-25 3 0 110 c0 88 -3 109 -14 109 -8 0 -16 -3 -18 -7z"/>
<path d="M187 543 c-3 -7 -2 -195 2 -231 1 -9 13 -12 38 -10 44 4 56 25 17 30
l-28 3 2 85 c0 47 -1 95 -4 108 -4 21 -19 30 -27 15z"/>
<path d="M287 463 c-8 -15 -4 -128 5 -145 11 -22 61 -24 77 -4 14 17 11 151
-4 151 -5 0 -11 -31 -13 -68 -2 -58 -5 -68 -20 -65 -13 3 -17 15 -18 53 -3 79
-3 85 -13 85 -6 0 -12 -3 -14 -7z"/>
<path d="M407 455 c-5 -16 0 -145 6 -151 15 -15 27 12 26 59 -2 73 -1 77 16
77 12 0 15 -14 15 -70 0 -56 3 -70 15 -70 9 0 15 10 16 23 1 12 2 42 3 67 1
33 5 45 16 45 12 0 15 -14 15 -65 0 -50 3 -65 15 -68 13 -2 16 11 18 65 3 85
-12 113 -51 96 -14 -7 -28 -9 -32 -5 -11 11 -74 9 -78 -3z"/>
<path d="M609 459 c-16 -10 -24 -111 -10 -136 8 -15 20 -20 51 -20 l40 0 0 81
0 81 -35 1 c-19 0 -39 -3 -46 -7z m46 -53 c8 -40 -2 -79 -18 -73 -23 7 -20
107 3 107 5 0 12 -15 15 -34z"/>
<path d="M719 469 c-5 -18 -3 -161 2 -165 4 -2 22 3 40 12 20 9 25 13 12 10
-16 -3 -23 1 -24 12 -5 69 4 108 21 97 5 -3 10 3 10 14 0 22 -14 28 -25 11 -5
-8 -11 -7 -21 1 -8 6 -14 10 -15 8z"/>
<path d="M75 223 c1 -56 9 -63 68 -60 l52 2 0 45 0 45 -60 3 -61 3 1 -38z"/>
<path d="M229 236 c-3 -63 -1 -79 9 -72 12 7 14 83 2 91 -6 4 -11 -5 -11 -19z"/>
<path d="M278 254 c-9 -18 -3 -87 9 -91 8 -3 10 4 7 21 -6 33 3 33 28 1 28
-36 38 -31 38 21 0 32 -4 44 -12 41 -7 -2 -12 -15 -10 -28 3 -22 1 -21 -26 10
-16 19 -31 30 -34 25z"/>
<path d="M393 251 c-8 -5 -10 -46 -4 -83 2 -14 49 -8 65 8 19 19 21 48 4 61
-18 14 -54 22 -65 14z m47 -26 c15 -18 6 -45 -15 -45 -10 0 -15 10 -15 30 0
33 11 38 30 15z"/>
<path d="M499 241 c-4 -63 -3 -75 6 -78 13 -4 18 84 5 92 -6 3 -11 -3 -11 -14z"/>
<path d="M560 214 c-11 -26 -18 -50 -14 -53 4 -3 9 0 11 7 3 6 15 12 28 12 13
0 25 -6 28 -12 2 -7 8 -10 12 -6 8 8 -22 85 -37 94 -4 3 -17 -16 -28 -42z m35
-4 c3 -5 1 -10 -4 -10 -6 0 -11 5 -11 10 0 6 2 10 4 10 3 0 8 -4 11 -10z"/>
<path d="M662 213 l3 -48 57 -2 c62 -2 68 5 60 68 -4 25 -7 26 -63 28 l-60 2
3 -48z"/>
</g>
</svg>
